<svg xmlns="http://www.w3.org/2000/svg" viewBox="0 0 380.16 613.69"><g data-name="Layer 2"><path d="M378.37 281.09c-.68-1.53-3.35-7.18-3.35-7.18l3.4-8.64c.56-1.42 1.73-4.39 1.45-5.75-.72-3.44-2-6.17-3.85-6.73s-5.34.45-6.7 4.74l-4.93 13.8h-7.84a61.16 61.16 0 00-2.69-7.64 41.86 41.86 0 00-4.21-8.55 6 6 0 00-4.74-2.54 7.88 7.88 0 00-6.25 2.69l-8.74 9.77-4-10.85c-3.15-8.89 1.46-14.67 6.07-17a18.85 18.85 0 0110.19-1.36 65.5 65.5 0 018.16 1.57s9.18 2.12 14.2 2.18c3.72.05 8.38-.84 10.12-1.81-5.84-4.78-42.35-34.33-42.35-34.33-2.21-1.89-5.22-4.49-5-7.54a4.93 4.93 0 016.67-4.11c.79.31 11.29 5.81 17 8.07a15.6 15.6 0 00-3.43-11.5 277.32 277.32 0 01-16.24-22.54s7.71-27-.38-62C324 74 328.58 56.25 331 49.73c-25.69 8.64-59.16 29.27-74.9 66.14-17.44-7.33-38.94-7.32-39.16-7.32a136.1 136.1 0 00-38.37 5.22C151.33 68.36 93.81 16.4 9.73 0 19.42 13.77 33.86 44 34 81.07c.07 42.82 9.35 72 30.39 92.08-9.52 7.35-32.2 32.64-38.78 68.85 15.7-10.43 33.15-10.56 33.15-10.56C34.52 252.93 1.44 294.45 0 368c-1.49 77.86 56.26 142.23 110.76 154C74 491.24 53.49 447.63 58 406c15.39 52.8 55.89 89.69 128.83 116.81 70.17 26.12 104.33 64.6 112.97 90.88 11-23.13 23.67-81.3-2.1-131.87-13.58-26.63-35.2-56.29-35.4-56.55-9.85-13.53-12.16-25.35-11.05-31.91 2-11.65 9.52-15.78 15.4-15.78a11.25 11.25 0 018.23 3.38c4.09 5 2.9 10.93 1.9 14.23h32.67c14.93 0 21.47-4.73 28.11-21.28a98.11 98.11 0 017.86 45.3 69.22 69.22 0 0012.17-15.72c9-16.56 9.67-36.61 1.16-59.89a35.58 35.58 0 004.86-15.7 1.41 1.41 0 00-.73-1.42s-4.63-3.23-7.94-5.49a359.23 359.23 0 01-41.88 8.17l33.24-17.25c4-2.08 5.15-6.61 9.25-23.27l.48-1.92h7.63c-.08 2.76-.33 10-.56 13.77s-.59 8.06-.6 10.15c.07.7 3.34 2.8 7 6.3 9.87-16.36 10.56-24.74 10.61-25.65a19.89 19.89 0 00-1.74-10.2zM217.05 192c4.95-7.52 13.06-11.55 23.42-11.63a34.1 34.1 0 0118.74 5.21c10.89 6.73 18.14 17.25 20 19.78a42 42 0 00-7.57-.51 45.31 45.31 0 00-15.37 3.62 28.25 28.25 0 01-11.73 2.34c-6.22-.43-11.17-3.82-15.16-10.35-2.79-4.59-7.65-4.79-10.31-5a2.47 2.47 0 01-2.1-1 2.21 2.21 0 01.08-2.46zm4.1 276.21c-4.06-.33-66.69-13.67-72.22-75.22-9.19 8.55-14.84 19.9-14.89 20-9.76-15.19-15.21-31.33-17.68-49.41a65.43 65.43 0 00-11.36 18.2c-16.4-15.36-25.54-37.1-27-63.66-1.18-21.85 5.4-42.44 19.16-55.73-16.15 43.61.91 82.45 6.73 90.94A41.84 41.84 0 01115.07 343c.33-33.75 13.49-63.76 34.93-76.31 0 0-19.24 27.16-18.3 73.68.39 20.12 4.67 33 6.43 37.52 3.23-4 8-7.48 11.86-9.82 8.27-54 54.35-62.28 54.81-62.36-13.78 9.67-45.61 38.58-40.94 85.37 3.07 30.6 27 46 34.07 49.93-.85-5.72-2.54-21.44 1.48-37.56 3.36-13.55 13-31.54 31.93-39.06-.16.15-15.78 17-19 46a115.44 115.44 0 008.81 57.81zm-70.08-169c10.7-11.07 39.58-29.76 78.62-32.05 54.58-3.19 80.55 15.79 80.55 15.79s-43.73-7.18-80.5-3.56c-46.07 4.49-78.38 19.61-78.67 19.8zm101 17.19c-29.18 12.67-54.74 33.21-54.74 33.21s16.56-31.74 49.58-44.9c37-14.74 65.7-7.66 65.7-7.66-22.61 4.51-39.53 10.2-60.55 19.33zm-21.64-71.66C178 237.36 126.6 246 126.39 246c.24-.13 38.61-23.37 105.56-14.71 67.33 10.5 85.2 39.23 85.2 39.23s-28.72-17.66-86.73-25.8z" fill="#a32035" data-name="Layer 1"/></g></svg>