<svg xmlns="http://www.w3.org/2000/svg" viewBox="0 0 494.64 434.07"><defs><clipPath id="clip-path" transform="translate(-.51)"><path class="cls-1" d="M478.34 96.39h-5.21A43.09 43.09 0 00475.86 78h5.21a43.24 43.24 0 01-2.73 18.39z"/></clipPath><clipPath id="clip-path-2" transform="translate(-.51)"><path class="cls-1" d="M487.43 115.12h-5.2c-.94-6-6.6-14.61-9.1-18.72h5.21c2.5 4.1 8.16 12.69 9.09 18.72z"/></clipPath><clipPath id="clip-path-3" transform="translate(-.51)"><path class="cls-1" d="M472.81 135.59h-5.21c12.1-2.68 14.5-19.59 14.63-20.48h5.2c-.12.89-2.53 17.81-14.62 20.48z"/></clipPath><clipPath id="clip-path-4" transform="translate(-.51)"><path class="cls-1" d="M451.85 161.43h-5.2c8.79-.47 22.58-7.6 21-25.83h5.21c1.58 18.22-12.22 25.4-21.01 25.83z"/></clipPath><clipPath id="clip-path-5" transform="translate(-.51)"><path class="cls-1" d="M481.07 78h-5.21c-11-9.6-28.27-19.33-44.71-26.2h5.21C452.8 58.68 470 68.41 481.07 78z"/></clipPath><clipPath id="clip-path-6" transform="translate(-.51)"><path class="cls-1" d="M451.58 169.16h-5.21a60 60 0 01-24.83-9.84h5.2a59.83 59.83 0 0024.84 9.84z"/></clipPath><clipPath id="clip-path-7" transform="translate(-.51)"><path class="cls-1" d="M414.56 152.8h-5.2.46a53.76 53.76 0 0013.4-1.76h5.21a53.3 53.3 0 01-13.4 1.76z"/></clipPath><clipPath id="clip-path-8" transform="translate(-.51)"><path class="cls-1" d="M414.47 160.51h-5.21q-2.06 0-4.11-.15h5.2c1.37.1 2.75.15 4.12.15z"/></clipPath><clipPath id="clip-path-9" transform="translate(-.51)"><path class="cls-1" d="M393.33 297.74h-5.21c8.89-25.31 13.5-57.89 6.68-98.26h5.21c6.82 40.38 2.21 72.95-6.68 98.26z"/></clipPath><clipPath id="clip-path-10" transform="translate(-.51)"><path class="cls-1" d="M373.92 108.28h-5.2c2.46-3 7.12-4.69 11.28-4.71h5.21c-4.16.02-8.82 1.69-11.29 4.71z"/></clipPath><clipPath id="clip-path-11" transform="translate(-.51)"><path class="cls-1" d="M380.13 103.56z"/></clipPath><clipPath id="clip-path-12" transform="translate(-.51)"><path class="cls-1" d="M382.21 371.21H377a48.49 48.49 0 004.34-20.74h5.21a48.49 48.49 0 01-4.34 20.74z"/></clipPath><clipPath id="clip-path-13" transform="translate(-.51)"><path class="cls-1" d="M381.54 323.83h-5.2a167.13 167.13 0 009.88-20.92h5.21a165.07 165.07 0 01-9.89 20.92z"/></clipPath><clipPath id="clip-path-14" transform="translate(-.51)"><path class="cls-1" d="M386.62 121.63h-5.21c-2.53-1.76-10.21-4.29-12.69-13.34h5.2c2.48 9.05 10.17 11.58 12.7 13.34z"/></clipPath><clipPath id="clip-path-15" transform="translate(-.51)"><path class="cls-1" d="M369.87 423.45h-5.21c22.68-19.13 61-58.55 66.17-126.52 3.09-40.32-9.93-89.64-39.25-146.71h5.21c29.32 57.06 42.34 106.38 39.25 146.7-5.21 67.99-43.49 107.4-66.17 126.53z"/></clipPath><clipPath id="clip-path-16" transform="translate(-.51)"><path class="cls-1" d="M435 47.75h-5.21c-19.27-10.53-45-31.06-69.65-30.92h5.21C390 16.69 415.77 37.22 435 47.75z"/></clipPath><clipPath id="clip-path-17" transform="translate(-.51)"><path class="cls-1" d="M358 9.71h-5.21a49.72 49.72 0 017.65-.62h5.21a49.72 49.72 0 00-7.65.62z"/></clipPath><clipPath id="clip-path-18" transform="translate(-.51)"><path class="cls-1" d="M338.93 396h-5.21c.84 0 1.67 0 2.49-.06h5.21q-1.23.06-2.49.06z"/></clipPath><clipPath id="clip-path-19" transform="translate(-.51)"><path class="cls-1" d="M333.38 231.27h5.21c13 0 24.84 3.87 33.54 11.65s13.95 19.48 14 33.33h-5.21c-.07-13.85-5.3-25.67-14-33.34s-20.51-11.61-33.54-11.64z"/></clipPath><clipPath id="clip-path-20" transform="translate(-.51)"><path class="cls-1" d="M333.4 224.12h5.21-5.82z"/></clipPath><clipPath id="clip-path-21" transform="translate(-.51)"><path class="cls-1" d="M369.19 434.07H364a296.52 296.52 0 00-32-30.93h5.21a297.48 297.48 0 0131.98 30.93z"/></clipPath><clipPath id="clip-path-22" transform="translate(-.51)"><path class="cls-1" d="M324.7 7.46h5.21a8.54 8.54 0 011.62.16 76 76 0 0125 10.21h-5.21a76.38 76.38 0 00-25-10.21 9.39 9.39 0 00-1.62-.16z"/></clipPath><clipPath id="clip-path-23" transform="translate(-.51)"><path class="cls-1" d="M322.28 38.17h5.21a38.64 38.64 0 015.3.38h-5.21a35.72 35.72 0 00-5.3-.38z"/></clipPath><clipPath id="clip-path-24" transform="translate(-.51)"><path class="cls-1" d="M317.92 8.37h-5.21C315 2.21 319.75 0 325.32 0h5.21c-5.53.05-10.33 2.23-12.61 8.37z"/></clipPath><clipPath id="clip-path-25" transform="translate(-.51)"><path class="cls-1" d="M304.85 35.43h-5.21a39.52 39.52 0 018.64-1h5.2a39.46 39.46 0 00-8.63 1z"/></clipPath><clipPath id="clip-path-26" transform="translate(-.51)"><path class="cls-1" d="M308.65 34.42z"/></clipPath><clipPath id="clip-path-27" transform="translate(-.51)"><path class="cls-1" d="M307.07 15.9h5.2a105.64 105.64 0 0112.21.69h-5.21a105.44 105.44 0 00-12.2-.69z"/></clipPath><clipPath id="clip-path-28" transform="translate(-.51)"><path class="cls-1" d="M309.52 41.61h-5.21c-1.72-1-4.52-5.93-4.67-6.19h5.21c.15.27 2.95 5.23 4.67 6.19z"/></clipPath><clipPath id="clip-path-29" transform="translate(-.51)"><path class="cls-1" d="M271.36 114.9h-5.21a40.29 40.29 0 015.28-7.94h5.21a39 39 0 00-5.28 7.94z"/></clipPath><clipPath id="clip-path-30" transform="translate(-.51)"><path class="cls-1" d="M266.43 98.29h-5.21a43.14 43.14 0 017-7.46h5.21a42.92 42.92 0 00-7 7.46z"/></clipPath><clipPath id="clip-path-31" transform="translate(-.51)"><path class="cls-1" d="M257.89 106.67h-5.21c1.3-24.74 9.5-44.07 21-57.29h5.21c-11.51 13.23-19.7 32.55-21 57.29z"/></clipPath><clipPath id="clip-path-32" transform="translate(-.51)"><path class="cls-1" d="M306.7 403.31h-5.21c-14.39 0-28-4.26-38.21-13.39-10.2-9-16.15-22.44-16.43-37.79h5.21c.28 15.35 6.23 28.85 16.43 37.79 10.22 9.13 23.82 13.38 38.21 13.39z"/></clipPath><clipPath id="clip-path-33" transform="translate(-.51)"><path class="cls-1" d="M251.67 274.42h-5.21a55 55 0 014.79-20.89h5.21a55 55 0 00-4.79 20.89z"/></clipPath><clipPath id="clip-path-34" transform="translate(-.51)"><path class="cls-1" d="M238.34 346.42h-5.21a56.87 56.87 0 0020.7-3.8H259a56.66 56.66 0 01-20.66 3.8z"/></clipPath><clipPath id="clip-path-35" transform="translate(-.51)"><path class="cls-1" d="M232.78 181.68H238c13 0 24.85 3.88 33.55 11.65s14 19.5 14 33.34h-5.21c-.07-13.84-5.3-25.67-14-33.35s-20.52-11.61-33.56-11.64z"/></clipPath><clipPath id="clip-path-36" transform="translate(-.51)"><path class="cls-1" d="M232.8 174.55h5.21-5.83z"/></clipPath><clipPath id="clip-path-37" transform="translate(-.51)"><path class="cls-1" d="M283.59 138.62h-5.21c-14.12-17.62-41.56-38.22-74.86-38h5.21c33.27-.21 60.74 20.38 74.86 38z"/></clipPath><clipPath id="clip-path-38" transform="translate(-.51)"><path class="cls-1" d="M193 125.23h5.21a52.8 52.8 0 0131.11 9.77 148.81 148.81 0 0143.51 50.29h-5.21A148.58 148.58 0 00224.11 135a52.81 52.81 0 00-31.11-9.77z"/></clipPath><clipPath id="clip-path-39" transform="translate(-.51)"><path class="cls-1" d="M173.53 130.85h-5.21c11.44-9 23.31-14.17 35.19-14.24h5.21c-11.88.07-23.72 5.24-35.19 14.24z"/></clipPath><clipPath id="clip-path-40" transform="translate(-.51)"><path class="cls-1" d="M206.1 353.73h-5.2c-14.39 0-28-4.26-38.21-13.38a47.59 47.59 0 01-13.82-21.5h5.21a47.5 47.5 0 0013.82 21.5c10.21 9.12 23.82 13.37 38.2 13.38z"/></clipPath><clipPath id="clip-path-41" transform="translate(-.51)"><path class="cls-1" d="M158.35 277.07h-5.21q-3.51-.89-7.06-1.74h5.2c2.37.57 4.72 1.14 7.07 1.74z"/></clipPath><clipPath id="clip-path-42" transform="translate(-.51)"><path class="cls-1" d="M151 227.46h-5.21c-.1-15.71 5.74-29.64 16-38.84 10.29-9.4 24.08-13.79 38.66-13.87h5.21c-14.58.07-28.37 4.47-38.66 13.87-10.24 9.19-16.08 23.12-16 38.84z"/></clipPath><clipPath id="clip-path-43" transform="translate(-.51)"><path class="cls-1" d="M309.86 8.31h4.06c-11.25.08-31.37 1.49-38.92 5.39-15.39 7.94-4.35 26.9 3.89 35.68h-5.21c-8.24-8.79-19.28-27.74-3.89-35.69 7.55-3.89 27.67-5.3 38.92-5.37z"/></clipPath><clipPath id="clip-path-44" transform="translate(-.51)"><path class="cls-1" d="M140.44 318.93h-5.21a10.64 10.64 0 01-10.63-10.64h5.21a10.63 10.63 0 0010.63 10.64z"/></clipPath><clipPath id="clip-path-45" transform="translate(-.51)"><path class="cls-1" d="M204.82 92.84h4.55a75.62 75.62 0 00-11.43.93c-21.48 3.41-40.47 16-56.22 30.59-33.14 30.71-57 72.44-73.6 114.3h-5.21c16.6-41.87 40.46-83.59 73.6-114.31 15.76-14.61 34.74-27.17 56.22-30.59a75.61 75.61 0 0111.43-.92z"/></clipPath><clipPath id="clip-path-46" transform="translate(-.51)"><path class="cls-1" d="M5.72 285.56H.51c5.58-6.75 28.72-32.63 62.4-46.88h5.21c-33.68 14.24-56.82 40.12-62.4 46.88z"/></clipPath><clipPath id="clip-path-47" transform="translate(-.51)"><path class="cls-1" d="M129.79 305.13h-5.21A740.83 740.83 0 00.51 285.54h5.21a741 741 0 01124.07 19.59z"/></clipPath><style>.cls-1{fill:none}.cls-2{isolation:isolate}.cls-4{fill:#567790}.cls-7{fill:#587a94}.cls-9{fill:#5b7e97}.cls-11{fill:#54748d}.cls-28{fill:#5a7d96}.cls-37{fill:#83b2d5}.cls-57{fill:#00447c}</style></defs><g id="Layer_2" data-name="Layer 2"><g class="cls-2" id="PMS_543_C_Lt_Blue" data-name="PMS 543 C Lt Blue"><g class="cls-2"><g class="cls-2" clip-path="url(#clip-path)"><path class="cls-4" d="M478.34 96.39h-5.21A43.09 43.09 0 00475.86 78h5.21a43.24 43.24 0 01-2.73 18.37" transform="translate(-.51)"/></g></g><g class="cls-2"><g class="cls-2" clip-path="url(#clip-path-2)"><path class="cls-4" d="M487.43 115.12h-5.2c-.94-6-6.6-14.61-9.1-18.72h5.21c2.5 4.11 8.16 12.7 9.09 18.73" transform="translate(-.51)"/></g></g><g class="cls-2"><g class="cls-2" clip-path="url(#clip-path-3)"><path class="cls-7" d="M472.81 135.59h-5.21a13.57 13.57 0 002.7-.89h5.21a13.57 13.57 0 01-2.7.89" transform="translate(-.51)"/><path class="cls-4" d="M475.51 134.7h-5.21c9.76-4.37 11.81-18.77 11.93-19.59h5.2c-.11.82-2.16 15.21-11.92 19.58" transform="translate(-.51)"/></g></g><g class="cls-2"><g class="cls-2" clip-path="url(#clip-path-4)"><path class="cls-9" d="M451.85 161.43h-5.2a20 20 0 002.45-.28h5.21a20 20 0 01-2.46.29" transform="translate(-.51)"/><path class="cls-7" d="M454.31 161.14h-5.21a24.13 24.13 0 005.45-1.69h5.21a23.59 23.59 0 01-5.45 1.68" transform="translate(-.51)"/><path class="cls-4" d="M459.76 159.46h-5.21c7.27-3.23 14.23-10.61 13.05-23.86h5.21c1.18 13.25-5.78 20.64-13.05 23.87" transform="translate(-.51)"/></g></g><g class="cls-2"><g class="cls-2" clip-path="url(#clip-path-5)"><path class="cls-4" d="M481.07 78h-5.21c-11-9.6-28.27-19.33-44.71-26.2h5.21C452.8 58.68 470 68.41 481.07 78" transform="translate(-.51)"/></g></g><path class="cls-11" d="M435.85 51.81l-5.21-.01-1.32-4.07 5.21.02 1.32 4.06z"/><g class="cls-2"><g class="cls-2" clip-path="url(#clip-path-6)"><path class="cls-4" d="M451.58 169.16h-5.21a60 60 0 01-24.83-9.84h5.2a59.83 59.83 0 0024.84 9.83" transform="translate(-.51)"/></g></g><g class="cls-2"><g class="cls-2" clip-path="url(#clip-path-7)"><path class="cls-9" d="M414.56 152.8h-5.2.46a53.68 53.68 0 009.18-.8h5.2a53.42 53.42 0 01-9.13.82h-.47" transform="translate(-.51)"/><path class="cls-7" d="M424.16 152h-5.2q2.09-.36 4.26-.93h5.21c-1.45.38-2.87.69-4.27.94" transform="translate(-.51)"/></g></g><g class="cls-2"><g class="cls-2" clip-path="url(#clip-path-8)"><path class="cls-4" d="M414.47 160.51h-5.21q-2.06 0-4.11-.15h5.2c1.37.09 2.75.14 4.12.14" transform="translate(-.51)"/></g></g><g class="cls-2"><g class="cls-2" clip-path="url(#clip-path-9)"><path class="cls-4" d="M393.33 297.74h-5.21c8.89-25.31 13.5-57.89 6.68-98.26h5.21c6.82 40.37 2.21 72.94-6.68 98.25" transform="translate(-.51)"/></g></g><path class="cls-11" d="M386.05 350.47l-5.21-.02-.11-19.53 5.21.01.11 19.54zM385.75 295.8l-5.21-.01-.11-19.54 5.21.01.11 19.54z"/><g class="cls-2"><g class="cls-2" clip-path="url(#clip-path-10)"><path class="cls-4" d="M373.92 108.28h-5.2a12 12 0 014.46-3.25h5.21a12.11 12.11 0 00-4.47 3.25" transform="translate(-.51)"/><path class="cls-7" d="M378.39 105h-5.21a16.78 16.78 0 013.94-1.2h5.21a17.1 17.1 0 00-3.94 1.19" transform="translate(-.51)"/><path class="cls-9" d="M382.33 103.84h-5.21a16.76 16.76 0 012.88-.26h5.21a17.64 17.64 0 00-2.88.27" transform="translate(-.51)"/></g></g><g class="cls-2"><g class="cls-2" clip-path="url(#clip-path-11)"><path class="cls-9" d="M385.21 103.57" transform="translate(-.51)"/></g></g><g class="cls-2"><g class="cls-2" clip-path="url(#clip-path-12)"><path class="cls-4" d="M382.21 371.21H377a48.49 48.49 0 004.34-20.74h5.21a48.49 48.49 0 01-4.35 20.74" transform="translate(-.51)"/></g></g><g class="cls-2"><g class="cls-2" clip-path="url(#clip-path-13)"><path class="cls-4" d="M381.54 323.83h-5.2a167.13 167.13 0 009.88-20.92h5.21a165.07 165.07 0 01-9.89 20.92" transform="translate(-.51)"/></g></g><g class="cls-2"><g class="cls-2" clip-path="url(#clip-path-14)"><path class="cls-4" d="M386.62 121.63h-5.21c-2.53-1.76-10.21-4.29-12.69-13.34h5.2c2.48 9.06 10.17 11.59 12.7 13.35" transform="translate(-.51)"/></g></g><g class="cls-2"><g class="cls-2" clip-path="url(#clip-path-15)"><path class="cls-4" d="M369.87 423.45h-5.21c22.68-19.13 61-58.55 66.17-126.52 3.09-40.32-9.93-89.64-39.25-146.71h5.21c29.32 57.06 42.34 106.38 39.25 146.7-5.21 68-43.49 107.39-66.17 126.52" transform="translate(-.51)"/></g></g><g class="cls-2"><g class="cls-2" clip-path="url(#clip-path-16)"><path class="cls-4" d="M435 47.75h-5.21c-19.27-10.53-45-31.06-69.65-30.92h5.21C390 16.69 415.77 37.22 435 47.75" transform="translate(-.51)"/></g></g><g class="cls-2"><g class="cls-2" clip-path="url(#clip-path-17)"><path class="cls-9" d="M358 9.71h-5.21a49.72 49.72 0 017.65-.62h5.21a49.72 49.72 0 00-7.65.62" transform="translate(-.51)"/></g></g><g class="cls-2"><g class="cls-2" clip-path="url(#clip-path-18)"><path class="cls-9" d="M338.93 396h-5.21c.84 0 1.67 0 2.49-.06h5.21q-1.23.06-2.49.06" transform="translate(-.51)"/></g></g><g class="cls-2"><g class="cls-2" clip-path="url(#clip-path-19)"><path class="cls-4" d="M386.15 276.26h-5.21c-.07-13.85-5.3-25.67-14-33.34s-20.51-11.61-33.54-11.64h5.21c13 0 24.84 3.87 33.54 11.65s13.95 19.48 14 33.33" transform="translate(-.51)"/></g></g><g class="cls-2"><g class="cls-2" clip-path="url(#clip-path-20)"><path class="cls-9" d="M338 224.14h-5.21 5.83-.62" transform="translate(-.51)"/></g></g><g class="cls-2"><g class="cls-2" clip-path="url(#clip-path-21)"><path class="cls-4" d="M369.19 434.07H364a296.52 296.52 0 00-32-30.93h5.21a297.48 297.48 0 0132 30.93" transform="translate(-.51)"/></g></g><path class="cls-28" d="M333.6 296.1l-5.21-.02 52.15-.29 5.21.01-52.15.3z"/><g class="cls-2"><g class="cls-2" clip-path="url(#clip-path-22)"><path class="cls-4" d="M356.56 17.84h-5.21a76.38 76.38 0 00-25-10.21 9.39 9.39 0 00-1.62-.15h5.21a8.54 8.54 0 011.62.16 76 76 0 0125 10.21" transform="translate(-.51)"/></g></g><path class="cls-11" d="M326.8 341.3l-5.21-.01-.09-17.17 5.21.02.09 17.16z"/><path class="cls-28" d="M326.71 324.14l-5.21-.02 54.32-.3 5.21.01-54.32.31z"/><path class="cls-11" d="M326.59 303.27l-5.21-.01-.09-17.18 5.21.01.09 17.18z"/><g class="cls-2"><g class="cls-2" clip-path="url(#clip-path-23)"><path class="cls-4" d="M332.79 38.56h-5.21a35.72 35.72 0 00-5.3-.38h5.21a38.64 38.64 0 015.3.38" transform="translate(-.51)"/></g></g><path class="cls-28" d="M317.72 341.35l-5.21-.01 9.08-.05 5.21.01-9.08.05z"/><g class="cls-2"><g class="cls-2" clip-path="url(#clip-path-24)"><path class="cls-4" d="M317.92 8.37h-5.21a11.89 11.89 0 016.38-7.15h5.21a11.89 11.89 0 00-6.38 7.15" transform="translate(-.51)"/><path class="cls-7" d="M324.3 1.22h-5.21a13 13 0 013.13-.94h5.21a13.51 13.51 0 00-3.13.94" transform="translate(-.51)"/><path class="cls-9" d="M327.43.28h-5.21a18.52 18.52 0 013.1-.27h5.21a19.53 19.53 0 00-3.1.27" transform="translate(-.51)"/></g></g><g class="cls-2"><g class="cls-2" clip-path="url(#clip-path-25)"><path class="cls-7" d="M304.85 35.43h-5.21c.64-.15 1.28-.28 1.91-.39h5.21c-.64.11-1.27.24-1.91.39" transform="translate(-.51)"/><path class="cls-9" d="M306.76 35h-5.21a39.57 39.57 0 016.73-.6h5.2a40.54 40.54 0 00-6.72.61" transform="translate(-.51)"/></g></g><g class="cls-2"><g class="cls-2" clip-path="url(#clip-path-26)"><path class="cls-9" d="M313.48 34.43" transform="translate(-.51)"/></g></g><g class="cls-2"><g class="cls-2" clip-path="url(#clip-path-27)"><path class="cls-4" d="M324.48 16.61h-5.21a105.44 105.44 0 00-12.2-.7h5.2a105.64 105.64 0 0112.21.69" transform="translate(-.51)"/></g></g><path class="cls-11" d="M310.71 348.53l-5.21-.02-.38-69.47 5.21.02.38 69.47z"/><path class="cls-28" d="M310.33 279.06l-5.21-.02 23.18-.13 5.21.02-23.18.13z"/><path fill="#5a7d97" d="M309.45 224.19l-5.21-.02 28.03-.05 5.21.02-28.03.05z"/><path class="cls-28" d="M306.19 396.18l-5.2-.02 32.21-.18 5.21.01-32.22.19z"/><g class="cls-2"><g class="cls-2" clip-path="url(#clip-path-28)"><path class="cls-4" d="M309.52 41.61h-5.21c-1.72-1-4.52-5.93-4.67-6.19h5.21c.15.26 2.95 5.22 4.67 6.18" transform="translate(-.51)"/></g></g><path class="cls-37" d="M313.48 34.43a45.56 45.56 0 0119.31 4.13 37.64 37.64 0 00-5.65-.38 50.79 50.79 0 00-17.62 3.43c-1.72-1-4.52-5.92-4.67-6.18a39.46 39.46 0 018.63-1z" transform="translate(-.51)"/><path class="cls-11" d="M285.11 235.26l-5.21-.01-.05-8.58 5.21.01.05 8.58z"/><g class="cls-2"><g class="cls-2" clip-path="url(#clip-path-29)"><path class="cls-4" d="M271.36 114.9h-5.21a40.29 40.29 0 015.28-7.94h5.21a39 39 0 00-5.28 7.93" transform="translate(-.51)"/></g></g><g class="cls-2"><g class="cls-2" clip-path="url(#clip-path-30)"><path class="cls-4" d="M266.43 98.29h-5.21a43.14 43.14 0 017-7.46h5.21a42.92 42.92 0 00-7 7.47" transform="translate(-.51)"/></g></g><g class="cls-2"><g class="cls-2" clip-path="url(#clip-path-31)"><path class="cls-4" d="M257.89 106.67h-5.21c1.3-24.74 9.5-44.07 21-57.29h5.21c-11.51 13.23-19.7 32.55-21 57.29" transform="translate(-.51)"/></g></g><g class="cls-2"><g class="cls-2" clip-path="url(#clip-path-32)"><path class="cls-4" d="M306.7 403.31h-5.21c-14.39 0-28-4.26-38.21-13.39-10.2-9-16.15-22.44-16.43-37.79h5.21c.28 15.35 6.23 28.85 16.43 37.79 10.22 9.13 23.82 13.38 38.21 13.39" transform="translate(-.51)"/></g></g><g class="cls-2"><g class="cls-2" clip-path="url(#clip-path-33)"><path class="cls-4" d="M251.67 274.42h-5.21a55 55 0 014.79-20.89h5.21a55 55 0 00-4.79 20.89" transform="translate(-.51)"/></g></g><g class="cls-2"><g class="cls-2" clip-path="url(#clip-path-34)"><path class="cls-9" d="M238.34 346.42h-5.21a62.15 62.15 0 0010.51-.93h5.21a62.15 62.15 0 01-10.51.93" transform="translate(-.51)"/><path class="cls-7" d="M248.85 345.49h-5.21a52.88 52.88 0 0010.19-2.87H259a52.17 52.17 0 01-10.19 2.87" transform="translate(-.51)"/></g></g><g class="cls-2"><g class="cls-2" clip-path="url(#clip-path-35)"><path class="cls-4" d="M285.57 226.68h-5.21c-.07-13.84-5.3-25.67-14-33.35s-20.51-11.61-33.55-11.64H238c13 0 24.85 3.88 33.55 11.65s14 19.5 14 33.34" transform="translate(-.51)"/></g></g><g class="cls-2"><g class="cls-2" clip-path="url(#clip-path-36)"><path class="cls-9" d="M237.39 174.57h-5.21 5.83-.62" transform="translate(-.51)"/></g></g><path class="cls-28" d="M233.01 246.52l-5.2-.02 35.99-.2 5.2.01-35.99.21zM226.11 274.56l-5.21-.02 25.05-.14 5.2.02-25.04.14z"/><path class="cls-11" d="M226.2 291.73l-5.2-.02-.1-17.17 5.21.02.09 17.17zM225.99 253.69l-5.2-.01-.1-17.18 5.21.01.09 17.18z"/><path class="cls-28" d="M217.13 291.78l-5.21-.01 9.08-.06 5.2.02-9.07.05z"/><path class="cls-11" d="M210.12 298.95l-5.21-.01-.38-69.48 5.2.02.39 69.47z"/><path class="cls-37" d="M233.52 246.52l36-.21c-6.92 7.69-10.91 18.32-10.84 30.69v4.52l-25 .14.09 17.17-23.18.13-.38-69.47 23.18-.13zm18.15 27.9a55 55 0 014.79-20.89l-29.95.17-.1-17.19-9.08.06.31 55.21h9.08l-.1-17.17 25-.14" transform="translate(-.51)"/><path class="cls-28" d="M209.73 229.48l-5.2-.02 23.18-.13 5.21.02-23.19.13z"/><g class="cls-2"><g class="cls-2" clip-path="url(#clip-path-37)"><path class="cls-4" d="M283.59 138.62h-5.21c-14.12-17.62-41.56-38.22-74.86-38h5.21c33.3-.18 60.74 20.41 74.86 38" transform="translate(-.51)"/></g></g><path class="cls-28" d="M205.61 346.6l-5.21-.01 32.22-.18 5.2.01-32.21.18zM205.16 174.75l-5.21-.02 31.72-.18 5.21.02-31.72.18z"/><g class="cls-2"><g class="cls-2" clip-path="url(#clip-path-38)"><path class="cls-4" d="M272.83 185.27h-5.21A148.58 148.58 0 00224.11 135a52.81 52.81 0 00-31.11-9.77h5.21a52.8 52.8 0 0131.11 9.77 148.81 148.81 0 0143.51 50.29" transform="translate(-.51)"/></g></g><g class="cls-2"><g class="cls-2" clip-path="url(#clip-path-39)"><path class="cls-4" d="M173.53 130.85h-5.21a75.83 75.83 0 0116-9.85h5.21a75.58 75.58 0 00-16 9.85" transform="translate(-.51)"/><path class="cls-7" d="M189.52 121h-5.21a51.16 51.16 0 0111.89-3.71h5.2a51.72 51.72 0 00-11.88 3.71" transform="translate(-.51)"/><path class="cls-9" d="M201.4 117.29h-5.2a42 42 0 017.31-.68h5.21a44.2 44.2 0 00-7.32.68" transform="translate(-.51)"/></g></g><g class="cls-2"><g class="cls-2" clip-path="url(#clip-path-40)"><path class="cls-4" d="M206.1 353.73h-5.2c-14.39 0-28-4.26-38.21-13.38a47.59 47.59 0 01-13.82-21.5h5.21a47.5 47.5 0 0013.82 21.5c10.21 9.12 23.82 13.37 38.2 13.38" transform="translate(-.51)"/></g></g><g class="cls-2"><g class="cls-2" clip-path="url(#clip-path-41)"><path class="cls-4" d="M158.35 277.07h-5.21q-3.51-.89-7.06-1.74h5.2c2.37.57 4.73 1.14 7.07 1.74" transform="translate(-.51)"/></g></g><path class="cls-11" d="M150.77 275.33l-5.21-.02-.26-47.87 5.21.02.26 47.87zM151.66 315.03l-5.2-.01-1.48-9.5 5.21.01 1.47 9.5z"/><g class="cls-2"><g class="cls-2" clip-path="url(#clip-path-42)"><path class="cls-4" d="M151 227.46h-5.21c-.1-15.71 5.74-29.64 16-38.84a49.82 49.82 0 0113.49-8.76h5.21a49.59 49.59 0 00-13.49 8.76c-10.25 9.19-16.09 23.12-16 38.84" transform="translate(-.51)"/><path class="cls-7" d="M180.5 179.86h-5.21a57.88 57.88 0 0113.49-4.07H194a58.38 58.38 0 00-13.49 4.08" transform="translate(-.51)"/><path class="cls-9" d="M194 175.78h-5.21a68.28 68.28 0 0111.68-1h5.21a69.3 69.3 0 00-11.68 1" transform="translate(-.51)"/></g></g><path class="cls-28" d="M149.22 315.05l-5.21-.02 2.45-.01 5.2.01-2.44.02z"/><path class="cls-11" d="M146.25 315.06l-5.2-.01 2.22-5.49 5.21.02-2.23 5.48z"/><path class="cls-28" d="M145.28 315.07l-5.2-.02h.97l5.2.01-.97.01z"/><path class="cls-11" d="M145.77 310.64l-5.21-.02-1.93-5.06 5.21.01 1.93 5.07z"/><path class="cls-11" d="M142.31 315.08l-5.21-.01.76-5.48 5.2.02-.75 5.47z"/><path class="cls-28" d="M139.88 315.1l-5.21-.02 2.43-.01 5.21.01-2.43.02z"/><path class="cls-11" d="M139.52 307.68l-5.21-.01-.01-2.09 5.21.02.01 2.08z"/><path class="cls-28" d="M137.5 307.69l-5.21-.01 2.02-.01 5.21.01-2.02.01z"/><path class="cls-11" d="M137.54 315.11l-5.21-.01-.04-7.42 5.21.01.04 7.42z"/><path class="cls-28" d="M135.1 315.13l-5.2-.02 2.43-.01 5.21.01-2.44.02zM133.04 307.72l-5.21-.01 2.02-.02 5.21.02-2.02.01z"/><path class="cls-37" d="M486.76 95.46c3.47 5.68 7.39 12.63 8.39 19.6-1.2 9.71-6.24 20.79-14.63 25.69-.91 15.32-13.7 27.64-28.94 28.41a59.83 59.83 0 01-24.84-9.83 61.67 61.67 0 01-11.74 1.18c-1.55 0-3.1 0-4.65-.14 12.74 26.6 23.47 54.5 29.36 83.53 8.12 40.08 4.47 81.69-12.92 118.87-12.1 25.89-35.05 53.26-57.6 71.3a297.48 297.48 0 00-32-30.93l-30.46.17c-14.39 0-28-4.26-38.21-13.39-10.2-8.94-16.15-22.44-16.43-37.79a68.13 68.13 0 01-13.63 1.43l-32.33.17c-14.38 0-28-4.26-38.2-13.38a47.5 47.5 0 01-13.82-21.5l-13.64.08a10.63 10.63 0 01-10.63-10.63v-3.17A741 741 0 005.72 285.56c5.58-6.76 28.72-32.64 62.4-46.89 16.6-41.86 40.46-83.59 73.6-114.3 15.75-14.61 34.74-27.18 56.22-30.59a75.62 75.62 0 0111.43-.93c17-.09 34 5.29 48.52 13.82 1.3-24.74 9.49-44.06 21-57.29-8.24-8.78-19.28-27.74-3.89-35.68 7.55-3.9 27.67-5.31 38.92-5.37h4C320.2 2.23 325 .05 330.53 0 340.08 0 352 6.23 358 9.71a49.72 49.72 0 017.65-.62C392.83 8.94 418 30 441.33 42.41l1.19 3.66c16 7 34.64 18.12 45.88 28.15a58.94 58.94 0 01-1.64 21.24zm-13.95 40.13c12.09-2.67 14.5-19.58 14.62-20.47-.93-6-6.59-14.62-9.09-18.73A43.24 43.24 0 00481.07 78c-11-9.61-28.27-19.34-44.71-26.21L435 47.75c-19.27-10.53-45-31.06-69.65-30.92a40.61 40.61 0 00-8.83 1 76 76 0 00-25-10.21 9.32 9.32 0 00-1.68-.16 4.63 4.63 0 00-4.9 4.24 32.7 32.7 0 00-.47 4.9 106.66 106.66 0 00-13.27-.69c-11.4.06-22.79 1.65-30 3.75-5.81 1.69-8 5.37-5.24 11.33 2.82 6.14 7.57 13.77 14.34 18-7.3 5.55-21.13 23.19-23.83 49.26a42.92 42.92 0 017-7.47 83 83 0 00-2.1 24.08 39 39 0 015.28-7.93 140.68 140.68 0 006.95 31.65c-14.12-17.62-41.56-38.21-74.86-38-56.23.32-109.32 78.16-134.71 144-34 13.58-51.56 33.55-52.48 34.6 48.77 4.14 94.68 12.27 137 24.07.46 13.25 5.6 24.35 14 31.73 8.7 7.78 20.53 11.61 33.59 11.63l32.22-.18a56.66 56.66 0 0020.7-3.8v8.57c.08 14 5.3 25.67 14 33.36s20.53 11.6 33.59 11.62l32.22-.18q1.26 0 2.49-.06a331.37 331.37 0 0128.45 27.52c22.68-19.13 61-58.54 66.17-126.52 3.09-40.32-9.93-89.64-39.25-146.7a72.45 72.45 0 0018.27 2.55 53.3 53.3 0 0013.4-1.76 50.86 50.86 0 0023.42 10.4c8.79-.48 22.59-7.61 21-25.84M149.73 315h2.45l-1.48-9.5h-2.43l-2 5.09-1.93-5.07h-2.41l-1.55 9.52h2.43l.76-5.47 2.22 5.46h1l2.22-5.48.74 5.46m-9.7-7.36v-2.09h-6.48v2.09h2l.05 7.41h2.43v-7.41h2" transform="translate(-.51)"/><path class="cls-37" d="M385.21 103.57a12.91 12.91 0 013.81.51 32 32 0 00-5.2 4.23c0 .39-.26 7.75 2.8 13.32-2.53-1.76-10.22-4.29-12.7-13.35 2.47-3.02 7.13-4.69 11.29-4.71z" transform="translate(-.51)"/><g class="cls-2"><g class="cls-2" clip-path="url(#clip-path-43)"><path class="cls-4" d="M278.89 49.38h-5.21c-8.24-8.79-19.28-27.74-3.89-35.69l.86-.4h5.21c-.3.13-.59.27-.86.41-15.39 7.94-4.35 26.9 3.89 35.68" transform="translate(-.51)"/><path class="cls-7" d="M275.86 13.29h-5.21a45.28 45.28 0 019.86-2.67h5.2a45.23 45.23 0 00-9.85 2.66" transform="translate(-.51)"/><path class="cls-9" d="M285.71 10.63h-5.2a187.45 187.45 0 0128.2-2.3h5.21a185.09 185.09 0 00-28.21 2.3" transform="translate(-.51)"/></g></g><path class="cls-37" d="M382.21 371.21a48.49 48.49 0 004.35-20.74l-.11-19.54-52.14.3.09 17.17-23.17.13-.39-69.47 23.18-.13.09 17.17 52.15-.3-.11-19.54c-.07-13.85-5.3-25.66-14-33.33-8.82-7.89-20.85-11.72-34.1-11.65l-31.71.18a56.87 56.87 0 00-20.7 3.8l-.05-8.58c-.07-13.84-5.3-25.66-14-33.34-8.82-7.88-20.86-11.72-34.11-11.65l-31.71.19c-13.26.07-25.25 4-34 12-8.64 7.77-13.74 19.56-13.66 33.51l.27 49.65c-2.34-.6-4.7-1.17-7.07-1.74l-.31-47.84c-.1-15.72 5.74-29.65 16-38.84 10.29-9.4 24.08-13.8 38.66-13.87l31.72-.18c13.12-.08 25.56 3.34 35.44 10.7a148.81 148.81 0 00-43.5-50.27 52.92 52.92 0 00-31.59-9.73c-9.76 0-18.55 2.48-24.2 5.6 11.43-9 23.31-14.17 35.19-14.24C253 116.36 298 177.81 310 224.19l28-.05c14.62-.09 28.43 4.16 38.76 13.4s16.39 23 16.46 38.68l.12 21.52c8.89-25.31 13.5-57.88 6.68-98.25 27.32 86.03.92 143.81-17.81 171.72zm-.67-47.38a165.07 165.07 0 009.89-20.92l-64.33.37-.1-17.19-9.08.06.3 55.2 9.08-.05-.09-17.16 54.32-.31" transform="translate(-.51)"/><g class="cls-2"><g class="cls-2" clip-path="url(#clip-path-44)"><path class="cls-4" d="M140.44 318.93h-5.21a10.64 10.64 0 01-10.63-10.64h5.21a10.63 10.63 0 0010.63 10.63" transform="translate(-.51)"/></g></g><path class="cls-11" d="M129.3 308.3l-5.21-.01-.02-3.17 5.21.01.02 3.17z"/><g class="cls-2"><g class="cls-2" clip-path="url(#clip-path-45)"><path class="cls-4" d="M68.12 238.67h-5.21c16.6-41.87 40.46-83.59 73.6-114.31C147 114.65 158.86 105.85 172 100h5.21c-13.1 5.81-25 14.61-35.45 24.32-33.14 30.71-57 72.44-73.6 114.3" transform="translate(-.51)"/><path class="cls-7" d="M177.17 100.05L172 100a84.66 84.66 0 0119.42-6h5.21a83.69 83.69 0 00-19.42 6" transform="translate(-.51)"/><path class="cls-9" d="M196.59 94h-5.21l1.35-.23a75.61 75.61 0 0111.43-.92h5.21a75.62 75.62 0 00-11.43.93l-1.35.23" transform="translate(-.51)"/></g></g><g class="cls-2"><g class="cls-2" clip-path="url(#clip-path-46)"><path class="cls-4" d="M5.72 285.56H.51c5.46-6.6 27.69-31.48 60.14-45.9h5.21C33.41 254.08 11.17 279 5.72 285.56" transform="translate(-.51)"/><path class="cls-7" d="M65.86 239.65h-5.21c.75-.34 1.5-.66 2.26-1h5.21l-2.26 1" transform="translate(-.51)"/></g></g><g class="cls-2"><g class="cls-2" clip-path="url(#clip-path-47)"><path class="cls-4" d="M129.79 305.13h-5.21A740.83 740.83 0 00.51 285.54h5.21a741 741 0 01124.07 19.57" transform="translate(-.51)"/></g></g></g><g id="PMS_295_C_Navy_Blue" data-name="PMS 295 C Navy Blue"><path class="cls-57" d="M481.83 79.32c-11.1-9.67-28.48-19.49-45.07-26.46l-1.31-4.07c-21.77-11.91-51.7-36.43-79.2-30.35A77.44 77.44 0 00331 8.08c-3.68-.68-6.09.76-6.68 4a33.45 33.45 0 00-.5 4.91c-15.19-1.85-33.56.01-43.82 2.85-5.89 1.65-8.12 5.33-5.37 11.31 2.83 6.15 7.59 13.81 14.42 18.1-7.43 5.51-21.51 23.07-24.38 49.12a44.62 44.62 0 017.15-7.37 81.92 81.92 0 00-2.26 24 41.5 41.5 0 015.38-7.89 139.72 139.72 0 006.86 31.68c-14.18-17.69-41.81-38.44-75.49-38.44-56.86 0-111 77.53-137 143.2C34.8 257 16 277.86 16 277.86c49.29 4.42 95.67 12.8 138.39 24.85.4 13.25 5.53 24.38 14 31.8 8.75 7.83 20.7 11.73 33.9 11.83h32.59a58 58 0 0020.94-3.68v8.57c0 14 5.21 25.7 14 33.43s20.7 11.73 33.9 11.82h35.1a333.72 333.72 0 0128.62 27.67c23-19 62-58.19 67.61-126.13 3.35-40.31-9.55-89.7-38.88-146.93 5.65 1.35 17.48 4.68 32 1a53.29 53.29 0 0023.64 10.53c8.89-.42 22.87-7.48 21.33-25.71 12.24-2.62 14.9-20.39 14.9-20.39-.9-6-6.59-14.66-9.09-18.78 3.67-8.74 2.88-18.42 2.88-18.42zM262.08 326.44c-6.47 5.79-15.83 9.07-27.21 9.07h-32.05c-11.37 0-20.74-3.28-27.21-9.07s-10.39-14.18-10.39-25.79v-73.32c0-11.63 3.93-20 10.39-25.8s15.84-9.07 27.21-9.07h32.05c11.38 0 20.74 3.28 27.21 9.07s10.4 14.17 10.4 25.8v8.26H241.4v-7.17c0-3.24-.53-5.41-2.51-7.66-1.19-1.34-3.66-2.34-7.5-2.34h-40.71l5.62 13v68.15c0 3.24.53 5.41 2.51 7.66 1.18 1.34 3.66 2.33 7.5 2.33h25.08c3.84 0 6.31-1 7.5-2.33 2-2.25 2.51-4.42 2.51-7.66v-7.18h31.08v8.27c0 11.6-3.94 19.99-10.4 25.78zM255.83 277v4.52h-25.26v17.17h-23.45v-69.44h23.45v17.17H267c-7.07 7.58-11.17 18.25-11.17 30.58zm80.48 108.63h-32c-11.37 0-20.75-3.29-27.21-9.08s-10.39-14.18-10.39-25.79v-14.1c.91-.68 1.79-1.39 2.64-2.15 8.78-7.73 14-19.75 14-33.42v-19.54h-16.68v-4.08c0-11.62 3.91-20 10.39-25.8s15.84-9.06 27.21-9.06h32c11.39 0 20.75 3.28 27.22 9.06s10.39 14.18 10.39 25.8v8.26h-31.03v-7.18c0-3.23-.54-5.41-2.52-7.65-1.18-1.34-3.66-2.34-7.49-2.34h-40.71l5.61 13v68.14c0 3.24.54 5.41 2.51 7.66 1.19 1.34 3.67 2.34 7.5 2.34h25.09c3.83 0 6.31-1 7.49-2.34 2-2.25 2.52-4.42 2.52-7.66v-7.17h31.07v8.26c0 11.61-3.93 20-10.39 25.79s-15.83 9.07-27.22 9.08zm130.74-261.1a26.24 26.24 0 00-4.15-14.12c-.28 6.93-4.24 11.73-8.83 11.69-6.15-.06-17.21-6.08-20.23-7.2s-12.21-5.4-24.18-7.19a24.57 24.57 0 00-18.78 4.58s.34 7.49 6.71 11.63c5.48-1 10.7-7 18.56-6.94 25.08.07 40 16 43.4 21.17 0 0 1.19 9.51-7.38 12.64a38.65 38.65 0 01-19.37-12c-18.56 2.68-39.21.73-54-8.94-22.82 6.81-47.05-2-57.23-11.25.28-9.44 2.18-23.14 2.18-23.14s-7.34 9.45-9.73 16.69c-2.31 7-3.75 18.74-3.75 18.74 16.21 12.69 36.15 17.31 56.9 18.12 18 23.56 24.92 49.16 26.88 75.85 0 0 5.67-8.62 4.93-25.11.06.18.11.36.17.54 27.16 86.19.14 143.81-18.95 171.62a48 48 0 004.51-20.71v-19.51H332v17.18h-23.43v-69.48H332v17.17h52.73V277c0-13.84-5.22-25.7-14-33.42-8.87-7.93-21-11.83-34.41-11.83h-32.06a57.77 57.77 0 00-20.95 3.69v-8.58c0-13.84-5.22-25.7-14-33.43-8.88-7.93-21-11.83-34.43-11.83h-32.07c-13.41 0-25.55 3.9-34.42 11.84-8.78 7.72-14 19.47-14 33.42v49.66q-3.55-.92-7.14-1.78a490.09 490.09 0 00-70.31-11.83c14.48-9.12 44.9-22.41 69.09-27.69-19.4-2-35-2.87-50.28.22 16-36.84 43.88-83.06 74.8-105.55 11.61-8.44 23.64-13.54 35.65-13.54 44.76 0 89.91 61.71 101.79 108.15v.07c2.47-4.43 12.9-27.08-2.48-72.29q-1.41-3.74-2.65-7.33v-.07c-20.63-59.8-6.38-89.7 29.24-105.88-6.63-1-15.15-.21-23.55 2.91-5.44-2.37-11.05-5.79-13.88-10.44 27-5.65 42.74 1 46.45 3.34 32.49-10.55 51.87 7.88 74.43 19.7L409.27 58c16 3.3 45.08 14.45 58.49 27.13 0 0 .53 7.55-2.68 13.75-6.61-4.32-17.08-8.36-29.71-8.88-.65 2.46.76 7.79 1.91 8.94 20.32-2.74 27.06 2.14 29.38 4.2 4.68 4.16 6.89 13.63 6.89 13.63a11.05 11.05 0 01-6.5 7.79z" transform="translate(-.51)"/><path class="cls-57" d="M367.52 47.21c-10.69.9-14.6 8.28-14.6 8.28a25.61 25.61 0 016.43-.32c-4.47 5-1.87 12.55 6.91 16.5a29.71 29.71 0 004.51 1.52 50.49 50.49 0 01-9.67 4.38 41.68 41.68 0 0013.11 1.53c7.06-.55 16.07-2.37 25.21-15.23-2.77-4.87-21.67-17.52-31.9-16.66zm2.17 21.24c-4.74-3.15-6.58-9-2.48-11.8a38.34 38.34 0 017.28 3.08 7.07 7.07 0 00-1.65 6.27s2.55 2.4 9.73 2.72c-2.75 2.48-8.44 2.67-12.88-.27z" transform="translate(-.51)"/><path class="cls-57" d="M128.62 307.05h2.05v7.41h2.47v-7.41h2.04v-2.1h-6.56v2.1zM143.52 304.95l-2.04 5.09-1.93-5.09h-2.43l-1.62 9.51h2.46l.8-5.47h.02l2.18 5.47h.98l2.29-5.47h.02l.7 5.47h2.47l-1.44-9.51h-2.46z"/></g></g></svg>