<svg xmlns="http://www.w3.org/2000/svg" viewBox="0 0 680.37 424.48"><defs><style>.cls-1{fill:#231f20;}.cls-2{fill:#c4c4c4;}.cls-3{fill:#fff;}.cls-4{fill:#ea0029;}</style></defs><g id="Layer_2" data-name="Layer 2"><g id="Layer_1-2" data-name="Layer 1"><path class="cls-1" d="M479.48,5V39.85c36.44,1.58,43.83,7.39,43.83,25.34,0,6.87-2.64,14.26-7.92,28.51L452.82,259.45l-56.89-211H284.44l-56.89,211L165,93.7c-5.28-14.25-7.92-21.64-7.92-28.51,0-17.95,7.4-23.76,43.83-25.34V5H5V39.85c16.37,2.64,28,5.28,34.85,21.65l146.25,358H269l71.2-174.26,71.19,174.26h82.89l146.25-358c6.87-16.37,18.48-19,34.85-21.65V5Z"/><path class="cls-1" d="M446.23,173.16c-11.32-50.32-84.17-83.64-125.17-96.74,0,0,13.49,13.08,14.58,16.61-43.52-6.36-83.1-23.45-120.85-45.57,7.79,23.12,21.31,51.19,43.87,63-18.51-2.4-36.63-10-52.25-20.15,9.48,14.85,22.76,28.16,38.6,36.09-22.4-6-45.07-12.3-66.47-21.34,7.38,26.08,27.28,47.05,46,65.52-15-5.07-29.34-12.91-42.27-22,4.86,29.49,33.93,83,33.93,83s0,42.77,26.76,83.29c72.46-4.62,153.09,58.27,153.09,58.27s-52.37-107.06,98.63-115.06C494.69,258.07,488.19,214.57,446.23,173.16Z"/><path class="cls-2" d="M431.64,313h0Z"/><path class="cls-3" d="M367.21,175.7a1.15,1.15,0,0,0-.06.17c-1.94,4.42-7.91,6.53-13.37,4.63s-8.41-7-6.61-11.41a8.3,8.3,0,0,1,4.68-4.45c-9.24-7.86-17.32-9.24-22.33-9a17.8,17.8,0,0,0-1.87,3.6,16.56,16.56,0,0,0-.8,2.73c-2.23,12,7.06,22.7,18.07,26.55,12.16,4.24,26.95,1.1,33.77-10.56A25.66,25.66,0,0,1,367.21,175.7Z"/><path class="cls-4" d="M384.36,145.25c15.56,8.46,33.63,14.24,51.43,15.15-20.57-26-52.61-40.85-83-51.78,4.48,3.68,6.06,13.07,7.21,17.79-11.65-14.84-27.82-19.62-45.55-23.35,4.78,3.09,7.19,4.62,12,7.68-33.24-7.53-63.64-23.64-92.87-40.69,13.85,25.23,36.22,43.94,61.8,56.4-16.33,2.27-33.66-2.6-49.21-7.23,13,10.33,28.13,18.92,44.15,23.31-10.36-.64-20.71-1.6-31-3,4.29,3.3,8.71,6.65,11.58,8.82-21,.53-43-7.17-62.81-13.68,13.18,14.37,26.72,28.54,38,44.54l5.2,8.29A58.44,58.44,0,0,1,232,177.6c3.32,12.18,12,20.73,21.07,28.93-14.61-.74-29.56-11.09-42.21-17.77C225.51,214,240.42,240.38,261,261.35a165.67,165.67,0,0,1-25.44-22.61,65.93,65.93,0,0,0,15.34,35.67c-11.2-2.4-19.41-12.29-19.41-12.29,4.5,15.59,7.1,26.23,16.64,43.95C295.85,307,340,330,363.83,344.62,359.34,335.3,340.17,321,340.17,321c32.64,21.33,44.43,35.93,44.43,35.93s-30.05-42,23.47-81.38C374,288.72,305,255.65,298.42,249.09c7.29-.56,27.56,2.61,27.56,2.61-9.65-21-42.09-31.92-61.3-43.69a66.66,66.66,0,0,1,21.7-2.2A85.45,85.45,0,0,1,307,209.57c4.24-11.31-1.54-23.09-7.34-30.76-6.52-8.62-15.9-15-26.06-21.18l-1-.58c17.14-5.19,34.72-5,52.42-4.71a29.52,29.52,0,0,0-14.77-8.7c13.62-1.11,22.23.42,33.84,6,10.2,4.93,20.91,12.41,31.48,17.48,10.07,4.82,23.19,6.48,33.51.4-.44-.12-.88-.24-1.3-.38A37.83,37.83,0,0,1,384.36,145.25Z"/><path class="cls-3" d="M346.6,214c-.27-1.47,56.11,6.19,138.75,33.52-14.07-29.74-15.88-35.77-36.63-61.54-10.16-2.32-20.51-5.68-20.51-5.68,10.09,8.51,22.53,18.91,26.08,32.08-10.53-12.81-27.21-20.43-43.49-19.21-8.47.63-16.9,4.27-25.13,6.28s-16.71,3.8-25.12,5.2L353,205.91l-.2,0-4.9.81c-2.28.38-3.65.73-4.57,1.48a5.46,5.46,0,0,0-1.64,2.8l0,.11c-.49,1.61.11,3,1.69,5.79s3.35,5.62,5.21,8.35c11.87,17.42,28.91,32.28,50.14,34.82,18.85,2.25,54.29-8.72,73.46-9.54C427.69,231.57,346.73,214.7,346.6,214Z"/></g><g id="Layer_2-2" data-name="Layer 2"><path class="cls-3" d="M675.37,5V39.85s-28.52.06-34.85,21.65l-146.25,358H411.38l-19.19-50.91s-50-34.33-85-44.33L269,419.48H186.1L45.19,67.57S38.81,43.12,5,39.85V5H200.89V39.85s-1.95-.15-5-.15c-13.22,0-47.39,2.81-39,32.54l29.34,84.33,38.36,14s-35.36-33-41.36-59c0,0,23,9,64,16,0,0-31.56-19.5-40.78-37.25,0,0,27.78,18.25,61.78,27.25,0,0-32-15-50-65,0,0,34.66,20.67,58.66,29.67l7.59-33.82H395.93l20.26,81.15s21,11,30,43.59c0,0,9,8.41,30,38.41l46-133s17.17-38.94-35.57-38.94q-3.37,0-7.14.22V5H675.37m5-5H474.48V45.15l5.3-.31c2.36-.14,4.67-.21,6.84-.21,15.5,0,26,3.62,30.52,10.47,5.76,8.84.53,21.33.47,21.45l-.08.19-.07.2L474.64,200.75c-13.76-19.1-21.35-27.49-24-30.19-8.08-27.76-24.39-40.46-30.14-44.2L400.78,47.21l-.94-3.79H280.44l-.88,3.9-6.3,28.11c-22.84-9.52-52.2-27-52.51-27.15l-12-7.15,4.73,13.14c8.2,22.77,19.19,38.55,29,49.13a232.5,232.5,0,0,1-33.33-17.26l-16-10.53,8.84,17c4.73,9.1,14.56,18.39,23.6,25.65C199.64,112.56,185.19,107,185,106.91l-8.82-3.44,2.12,9.23c3.64,15.75,16.95,33.45,27.79,45.82l-16-5.83-28.5-81.95c-1.88-6.76-1.33-12,1.66-15.93,6.92-9.13,25.08-10.11,32.57-10.11,2.81,0,4.62.13,4.64.13l5.38.42V0H0V44.39l4.52.43C34.19,47.7,40.12,68,40.36,68.87l.08.3.1.26L181.46,421.34l1.26,3.14h89.65l1.26-3.14,36.48-91c30.37,10,70.32,36.33,78,41.45l18.63,49.42,1.22,3.24h89.71l1.27-3.11,146.25-358,.1-.24.07-.25c5.19-17.69,29.82-18,30.07-18l5,0V0Z"/></g></g></svg>