<svg xmlns="http://www.w3.org/2000/svg" viewBox="0 0 180.4 195.29"><defs><style>.cls-1{fill:#004785;}.cls-2{fill:#d3af7e;}</style></defs><g id="Layer_2" data-name="Layer 2"><g id="Layer_1-2" data-name="Layer 1"><path class="cls-1" d="M0,140.62H21.69V28.5H0V.78H69.75V28.5H53.21v45h55.86V28.5H92.53V.78h69.75V28.5H140.59V140.62h21.69v27.72H92.53V140.62h16.54V93.68H53.21v46.94H69.75v27.72H0Z"/><path class="cls-2" d="M.8,36.46H17.18v19Zm58.51,0H76V0L87.87,15.48v40H71.33v8.74h-12Zm34,0h11.23V52.2Zm-34,65.18h45.25v19.23H71.33v10.24h-12ZM76,176.31V139.85l11.86,13.23v42.21H18L.8,176.31Zm92.37,0V139.85l12,14.48v41H108.15l-14.82-19ZM146.85,36.46h21.53V0l12,17.48v38H158.71v75.67H146.85Z"/></g></g></svg>