<svg xmlns="http://www.w3.org/2000/svg" viewBox="0 0 233.95 157.37"><defs><style>.cls-1{fill:#60269e}</style></defs><g id="Layer_2" data-name="Layer 2"><g id="Layer_1-2" data-name="Layer 1"><path class="cls-1" d="M137.45 110.79l-24.5 5 4.59 5.38a3.49 3.49 0 01.66 3.38l-6.09 18.32 22.63 14.5.33-8 9.14-27.37a5.52 5.52 0 00-1.3-5.63zM70.84 124.19L48 128.62a7.11 7.11 0 00-5.37 4.72l-8 24h29.92l-2.18-7.64z"/><path class="cls-1" d="M175.53 111.33h2.75A55.66 55.66 0 00195.92 2.89 50.38 50.38 0 00178.79 0c-2 0-5.91.47-7.8.71a1.06 1.06 0 00.17 2.12 49.43 49.43 0 0114.38 2 52 52 0 0124.89 15.8 49.26 49.26 0 0111.9 28.14 49.38 49.38 0 01-12.11 36.18c-2.14 2.44-13.36 14.39-30.76 14.67l9.4-27.62a20.54 20.54 0 00-6.47-22.53l-11.94-9.74-4.73 4.49-12.86-10-.08-.07C142.77 25.91 134.72 19 125 19c-8 0-26.2 8.71-41.12 16.3L49.15 53.72h19.33L4.43 87.21h19.29L0 157.37h29.88l-2.18-7.64 6.3-18.68a8 8 0 016-5.28l42.66-8.53-13.44 40.13H99.1l-2.18-7.64 11.19-33.48a8 8 0 016-5.3l31-6.19c-6.06-8.31-4.41-17.25-2.6-22.36L120 86.86l4-4.86a93.4 93.4 0 0124-21.75.77.77 0 01.91 1.23c-5.23 4.56-10.59 11.49-16 18.17l17.84-3.48c-3.5 5-5.37 9.68-5.37 15.56 0 8.56 5.51 16.13 17.89 18.59l-2.2 6.36c-4 12.75-1.87 18.3 1.6 22 5.49 5.91 15.35 4.57 15.35 4.57l3.84-11.91c-6.33.88-9.67.56-11-.81-1.46-1.53-.16-4.77.11-5.87zm-8.25-31.56l2.94-1.63-.92-5.83 6.78 8.69c-.94 1.94-5.72 2.93-8.8-1.23z"/><path class="cls-1" d="M194.88 87.44a1 1 0 00-.16 1.36 1.13 1.13 0 001.06.42h.06a1.42 1.42 0 00.33-.11c17.11-8.76 23.63-28.92 15.17-46.9-6.34-13.52-21.86-22.52-37.73-21.89a1.08 1.08 0 00-1 .92 1 1 0 00.84 1 40.37 40.37 0 0129.33 23c6.88 15.06 3.72 32.01-7.9 42.2z"/></g></g></svg>