<svg xmlns="http://www.w3.org/2000/svg" viewBox="0 0 558.03 171.82"><defs><style>.cls-1{fill:#006f53}</style></defs><g id="Layer_2" data-name="Layer 2"><g id="Layer_1-2" data-name="Layer 1"><path class="cls-1" d="M192.06 85.12V61.79h-26.25v60.13L142 61.78h-27.33v23.34h5.58V149h-5.58v22.79h26.6v-57.21l23.45 57.21h27.34V149h-5.59V85.12zm-74.83-2.57V80h3v2.56zm21.48 86.68h-21.48v-2.57h18.91v-64.34l2.57 6.05zM137.4 64.35h2.86c1.05 2.65 21.08 53.4 25.57 64.75v6.9S142 75.85 137.4 64.35zm49.52 102.31v-15.09h2.57v17.66h-23.05c-.13-.33-.5-1.22-1.05-2.57zm-3-84.11V149h-2.56V80h5.58V64.36h2.57v18.19zM243.92 139.88V149h-15.45v-21.14H249v-22h-20.53V84.57h15.45v9.27h19.56V61.78h-63.56v22.79h5.58V149h-5.58v22.79h64.9v-31.91zm2.56-51.17h11.87V64.35h2.56v26.92h-14.43zm-23.15-9.27h20.59V82h-18v23.83h-2.57zm0 43.29h20.56v-14.32h2.57v16.89H225.9V149h-2.57zM205.05 82v-2.56h3V82zm57.2 87.22h-59.77v-2.57h57.2v-24.2h2.57zM327.1 109.8c-4.38-3.72-9.84-3.72-14.58-3.87H294.7V84.57H310v9.22h20.77v-32h-39.96c-4.86 0-10.81.15-15.31 6-3.89 5.11-4 10.85-4.13 16.74v19.5c.12 6.2.36 12.4 4.62 17.83 4.37 5.73 9.71 5.73 14.7 5.89H310V149h-15.3v-9.17h-22.12v32h40.55c4.25 0 8.26 0 12.27-2.79 7.77-5.27 7.77-15.19 7.9-22.63v-16.76c0-6.36 0-14.73-6.2-19.85zm-14.57-21.14h13.08V64.35h2.57v26.87h-15.65zm-23-9.22H310V82h-17.87v23.92h-2.57zm1.21 45.78h-.43c-4.72-.14-8.8-.26-12.33-4.9 2.91 2.13 6.16 2.24 9.79 2.35H310v2.56zm-1.21 17.18h2.57v6.6h-2.57zm41.17 3.92v.46c-.11 7-.25 15.68-6.79 20.12-3.35 2.33-6.8 2.33-10.8 2.33h-38v-2.57h35.41c4 0 7.46 0 10.81-2.33 6.54-4.43 6.68-13.13 6.79-20.11v-17.14c0-5.11 0-11.28-3.24-15.69.18.13.36.24.54.39 5.26 4.35 5.26 11.85 5.26 17.87zM471.83 149l-12-87.18h-37.3L410.72 149h-6.31v22.79h26.48l2.91-26.66h14.47l3 26.66h26.37V149zm-41.31-25.66l5.48-45.9h5.1l.3 2.56h-2.83l-5.47 45.89v.31h-2.87zm15.92 2.87h-10.81l5.47-45.9zm-14.93 16.35l-2.92 26.67H407v-2.57h19c.41-3.82 2.91-26.67 2.91-26.67H448s.11 1 .3 2.57zm26.06-78.18L469.24 149H467s-9.63-69.85-11.67-84.62zm17.53 104.85h-21.51l-.29-2.57h19.23v-15.09h2.57zM519 139.83V149h-12.76V84.57h13.36v9.26h19.8v-32h-34.25c-6.69 0-13.86.15-18.59 7.6-3.65 5.73-3.65 12.4-3.65 18.91v58.54c0 7.6.13 20 11.3 23.88 3.4 1.08 6.8 1.08 10.33 1.08h34.89v-32zm3.16-51.13h12.11V64.35h2.56v26.92h-14.67zm-21-9.26h18.44V82h-15.93v67h-2.56zm35.75 89.79h-32.37c-3.36 0-6.53 0-9.49-.95a12.15 12.15 0 01-6.07-4.4 13.23 13.23 0 003.51 1.84c3 .94 6.13.94 9.49.94h32.32V142.4h2.56zM378.26 139.83V149h-15.19V84.57h15.79v9.21h19.8v-32H362c-6.68 0-13.85.15-18.59 7.6-3.64 5.73-3.64 12.4-3.64 18.91v58.54c0 7.6.12 20 11.3 23.88 3.4 1.08 6.8 1.08 10.32 1.08H399v-32zm3.16-51.18h12.11v-24.3h2.57v26.86h-14.68zm-23.48-9.21h20.92V82h-18.35v67h-2.57zm38.53 89.79h-35.1c-3.35 0-6.52 0-9.48-.95a12.14 12.14 0 01-6.08-4.4 13.09 13.09 0 003.51 1.84c3 .94 6.13.94 9.49.94h35.09V142.4h2.57z"/><path fill="#fff" d="M53.37 89.57l-.04.02.03.02.03-.03-.02-.01z"/><path class="cls-1" d="M101 162.7h-7.75v-2.09h-1.62v-30.76h1.62v-2.48h4.94v-3.62h2.69V119H5.5v4.74h2.6v3.62h5.17v2.48h1.62v30.76h-1.62v2.09H5.5v4.58H0v4.54h106.09v-4.54H101zm-62.37-2.09H37v2.09H22.35v-2.09h-1.62v-30.76h1.62v-2.48H37v2.48h1.62zm23.67 0h-1.67v2.09H46.05v-2.09h-1.62v-30.76h1.62v-2.48h14.58v2.48h1.63zm23.53 0h-1.66v2.09H69.71v-2.09h-1.62v-30.76h1.62v-2.48h14.46v2.48h1.62zM18.7 116.54l34.54-20.91 34.55 20.91h9.93L53.24 89.61 8.76 116.54h9.94zM35.22 41.45V46h3.85v12.84H67.4V46h3.9v-4.55zM47 56.28h-5.46v-5a2.71 2.71 0 015.42 0zm10 0h-7.51v-6.56a3.75 3.75 0 117.49 0zm7.92 0h-5.45v-5a2.72 2.72 0 015.43 0zM67.43 39.17l-9.66-10.39v-2.05a4.52 4.52 0 00-2.28-3.91L53.24 0 51 22.82a4.5 4.5 0 00-2.28 3.91v2.05l-9.67 10.39z"/><path class="cls-1" d="M53.24 102a5.51 5.51 0 105.5 5.5 5.5 5.5 0 00-5.5-5.5zM34 61.11v4.52h2.87v29.23L53.2 85l16.31 9.85V65.63h2.89v-4.52zm19.2 19.22A5.82 5.82 0 0148.54 71l3.93 4 1.2-1.21-3.93-3.93a5.83 5.83 0 113.46 10.47zM544.81 61.84H550V63h-1.91v5.24h-1.34V63h-1.91zM555 66.85l1.15-5H558v6.37h-1.24V63.9v-1.03l-1.2 5.34h-1.29l-1.2-5.34v5.34h-1.24v-6.37h1.93z"/></g></g></svg>