<?xml version="1.0" encoding="utf-8"?>
<!-- Generator: Adobe Illustrator 24.2.0, SVG Export Plug-In . SVG Version: 6.00 Build 0)  -->
<svg version="1.1" id="Layer_1" xmlns="http://www.w3.org/2000/svg" xmlns:xlink="http://www.w3.org/1999/xlink" x="0px" y="0px"
	 viewBox="0 0 732.939 350.545" style="enable-background:new 0 0 732.939 350.545;" xml:space="preserve">
<style type="text/css">
	.st0{fill:#365888;}
</style>
<g id="Layer_2_2_">
	<g id="Layer_1-2_1_">
		<path class="st0" d="M683.149,126.99c0,0-1.569-3.642-4.621-3.196c-0.78,0.156-1.286,0.914-1.13,1.694
			c0.006,0.031,0.013,0.061,0.021,0.091c0.705,2.519,4.909,1.785,4.909,1.785L683.149,126.99z M193.957,214.389
			c5.399,2.404,12.193,5.672,11.258,12.006c-0.062,0.375-0.149,0.745-0.259,1.109c0.086-0.274,0.446,0.144,1.44-0.965
			c0.898-0.849,1.635-1.853,2.174-2.966c0.648-1.612,0.561-3.412-0.72-3.412c5.758,0,9.113,5.931,7.601,10.999
			c0.158-0.547,0.662,0.288,0.893,0c1.828-1.843,2.447-7.817,1.728-9.818c-1.209-3.397-5.226-3.57-8.206-5.312
			c2.577,0.374,5.255,0,7.716,1.008c2.706,1.598,3.585,4.866,4.923,7.5c0.403-2.966,1.828-6.579,0.144-9.07
			c-1.684-2.491-5.758-2.879-9.213-4.175c3.297,0.849,7.198-0.95,9.933,1.166c1.648,1.387,2.505,3.5,2.289,5.643
			c0,0.489,1.44-0.23,1.339,0.216c0.893-3.297,3.469-6.19,1.627-8.81c-2.634-3.757-12.251-2.879-18.931-2.879
			c-6.32-0.518-11.229,4.06-15.749,7.702 M322.715,200.612c-17.491,2.39-34.766,6.349-52.387,7.673
			c-7.198,0.389-14.396,0.259-21.594,0.864c-12.438,9.17-21.148,23.753-35.99,29.483c-8.019,3.11-7.889,5.974-10.077,10.38
			c4.535-1.267,8.954-3.009,13.59-3.873c3.196,0.101,6.392,1.555,9.473,2.26c1.051-5.399,5.341-9.343,8.638-13.388
			c6.579-7.198,18.585-21.378,20.154-21.22c16.354,1.756,32.218,6.19,48.414,8.81c9.545,0.317,14.842,9.242,20.5,15.519
			c1.44,1.555,2.318,3.685,4.204,4.088c4.463,0.979,10.739-0.288,11.834,0.677c1.094,0.965,1.584,7.63-0.086,11.43
			c-0.173,0.389,0.158,0.633,0.101,1.008c10.725,0,22.012,0,32.737-0.216c-6.853-8.335-15.044-15.389-22.645-23.034
			c-8.335-8.091-11.416-20.226-20.5-27.669c-1.857-1.44-3.945-3.225-6.435-2.879 M215.709,169.185
			c-3.469,4.319-3.239,7.616-1.238,8.321c3.498,1.238,24.157,0.432,36.854-2.26c0.662-0.144,0-1.641,0.677-1.785
			c-12.193-2.39-24.013-2.433-36.292-4.319 M315.633,169.732c-7.198,1.742-15.533,2.231-21.594-2.692
			c-1.915,6.421-2.778,13.273-5.614,19.363c-5.398,6.104-14.396,4.607-21.594,4.722c-14.396,0-28.389-4.175-42.742-3.325
			c-6.809,1.713-10.192,8.638-13.172,14.396c6.579,0.662,13.345,0.374,19.723,2.332c3.383,1.324,2.577,6.061,3.599,8.998
			c3.426-3.412,7.025-8.494,11.286-10.941c8.81-0.806,18.211-0.101,27.05-0.662c14.396-0.72,28.547-3.858,42.756-6.118
			c4.002-1.094,8.81-0.806,12.121-3.642c7.198-6.507,13.374-14.065,20.529-20.615c5.571-3.21,11.906-4.779,18.053-6.493
			c-16.959-2.404-34.003,0.648-50.458,4.65 M518.847,156.545c4.391,3.124,11.445,4.909,12.309,10.97
			c0.303,6.612-1.463,13.154-5.053,18.715c10.365,2.879,19.334,8.897,27.352,15.922c4.319,3.93,9.473,1.209,13.791,3.815
			c11.128,6.709,22.803,16.959,33.903,23.768c4.319,2.634,9.343,1.44,14.108,2.131c-8.724-3.441-13.23-11.43-20.946-16.296
			c-3.685-2.678-7.515-5.269-10.423-8.839c-8.479-11.718-22.515-17.103-33.356-26.201c-8.738-6.565-15.836-15.836-23.523-23.581
			c-2.073-0.317-6.075-0.13-8.134-0.432 M356.013,174.569c0.405,1.508,0.929,2.981,1.569,4.405l71.98-17.16
			c0,0,23.753,12.683,34.392,17.174l-2.534,3.282c16.138,4.477,32.146,9.458,48.14,14.396c4.204,1.195,6.55,5.197,8.882,8.537
			c6.305,9.833,15.648,17.376,23.682,25.711c0.23,0.23-0.101,0.993,0.115,1.224c-3.628,4.319-7.313,7.947-10.883,12.337
			c8.954,0.979,17.938,1.785,26.906,2.879c0.734,1.987,1.512,3.945,2.289,5.917c6.219,0,12.453,0.115,18.715,0.13
			c-0.59-2.534-1.166-5.125-1.584-7.687c25.913,1.9,51.826,4.88,77.667,7.313c-3.052-4.175-5.758-8.767-9.948-11.92
			c-2.706-1.44-5.902-1.267-8.854-1.713c-9.948-0.705-19.751-2.793-29.771-2.75c-3.124-0.835-7.054,0.648-9.775-1.44
			c-9.386-7.083-23.379-17.189-33.111-23.739c-2.03-1.368-5.758-0.59-8.926-1.339c-2.289-0.547-4.204-2.289-6.392-4.434
			c-8.467-7.413-18.683-12.546-29.685-14.914c-12.956-2.706-38.61-9.818-38.61-9.818l-50.674-24.516
			C429.606,156.445,380.256,168.796,356.013,174.569 M559.17,144.266c-0.072,2.332-0.389,4.851,0.864,6.953
			c7.025,11.906,16.469,22.098,24.689,33.111c8.062,10.826,17.765,20.154,26.489,30.462c-1.756,0.144-3.513,0.274-5.255,0.374
			c0,1.109-0.086,2.217-0.13,3.325c6.478,2.059,13.403,1.972,19.924,3.757c3.383,3.541,2.879,8.278,3.354,12.784
			c0.144-0.331,0.576-0.115,0.734-0.446c1.093-2.06,1.791-4.306,2.059-6.622c0.547-3.988-2.044-7.054-3.945-10.192
			c3.093,1.156,5.93,2.907,8.35,5.154c1.987,2.433,1.872,5.931,0.461,9.285c-0.158,0.389,1.209,0.101,1.238,0.518
			c1.051-2.62,2.433-5.255,2.476-8.148c-0.533-3.095-2.361-5.758-3.685-8.551c4.578,2.462,8.839,5.758,7.788,12.755
			c0,0.417,0.878,0,0.907,0.374c2.701-7.108-0.407-15.107-7.198-18.528c-7.659-2.491-16.8,0-23.322-5.758
			c-11.877-9.703-21.364-21.896-31.153-33.615c-7.644-9.487-14.972-19.449-24.574-27.079 M647.433,134.966
			c-1.238,0.274-3.21,1.972-2.634,3.095c0.691,1.44,4.017,3.254,6.133,4.16c1.44-0.259,1.44-1.555,2.879-2.116
			c-2.721-2.001-4.607-5.514-6.32-5.139 M650.312,133.411c1.915,1.972,3.642,3.527,5.686,5.355c0.461-1.267,2.289-2.231,1.44-3.282
			c-1.123-1.339-4.664-1.512-7.112-2.073 M313.646,130.042c-4.967,3.311-10.653,6.565-13.316,12.193
			c-1.67,3.426-2.289,10.452-0.202,10.452c2.462,0,3.052-6.104,4.765-9.473C307.168,138.421,310.651,134.361,313.646,130.042
			 M359.411,128.991c-6.075,2.073-11.099,6.449-15.836,10.595c6.881-0.086,14.036,0.115,20.486-2.706
			c6.896-3.138,15.101-0.993,21.378,2.577c6.233,5.758,2.015,14.482,0.158,21.393c12.352-2.706,24.632-5.758,36.983-8.522
			c2.26-0.547,8.062-1.684,8.062-1.684s43.188,23.61,65.041,28.375c-4.132-2.879-8.724-5.24-11.834-9.271
			c-5.658-7.198-9.516-15.836-15.836-22.53c-6.723-3.441-14.598-3.57-21.479-6.637c-7.198-2.375-13.431-7.328-21.033-8.638
			c-11.718-1.108-23.322,1.44-34.968,2.116c-10.682,0.533-20.414-5.499-31.038-5.024 M244.185,125.824
			c2.419,11.171,6.723,22.242,5.255,33.903c-9.573-0.518-19.319-1.08-28.533-3.844c-4.247-1.051-8.998-6.507-13.575-3.325
			c-4.434,4.074-4.995,10.466-5.874,16.109c1.972-4.578,2.663-11.632,7.644-12.222c2.879-0.346,1.109,4.477,8.638,5.456
			c11.934,1.54,23.811,4.722,35.875,3.613c1.641-0.331,4.319-0.821,3.901-3.066c0.018-13.015-2.694-25.888-7.961-37.79
			L244.185,125.824 M539.304,144.755c-5.341,4.017-11.819,5.917-17.822,8.638c6.939-0.245,14.554,0,20.529-4.218
			c9.214-5.283,14.828-15.087,16.008-25.481c-5.168,7.817-10.826,15.692-18.715,21.004 M653.767,114.12
			c4.405,2.879,8.71,7.04,14.396,6.939C666.09,115.171,658.834,115.416,653.767,114.12 M309.874,126.4
			c-5.629,4.463-13.072,8.091-15.289,15.476c-1.857,5.024-0.317,15.836,0.36,16.023c11.718,1.958,38.567-5.888,57.843-5.758
			c5.312-1.065,7.932,4.319,11.517,6.982c-0.763-3.095-1.728-6.133-2.721-9.156c3.11,1.166,6.478,2.001,9.041,4.204
			c2.131,2.246,3.383,5.096,4.995,7.687c-0.144-2.217-0.403-6.651-0.547-8.868c-2.52-2.306-5.332-4.271-8.364-5.845
			c3.901,0.648,8.292,0.36,11.661,2.721c2.879,3.153,3.282,7.774,4.319,11.718c0.317-3.352,0.317-6.726,0-10.077
			c-0.561-3.599-3.916-5.672-6.262-8.105c4.028,0.982,7.392,3.741,9.142,7.5c-0.37-2.609-0.908-5.191-1.612-7.731
			c-5.56-4.185-12.958-5.012-19.305-2.159c-15.577,6.09-32.362,2.39-48.457,1.209c0.165-3.675,1.429-7.215,3.628-10.164
			c6.104-7.86,13.691-14.612,18.441-23.494c-10.696,3.657-19.406,11.344-28.519,17.794 M641.084,97.291
			c-0.419,1.897-0.419,3.862,0,5.758c1.108,2.462,6.406,3.801,9.156,3.052c1.118-0.49,1.764-1.674,1.569-2.879
			c-3.657,2.39-5.946,0.993-6.853-0.821c-0.51-0.835-0.246-1.924,0.588-2.434c0.257-0.157,0.55-0.246,0.851-0.258
			c0.561,0,0.734-0.72,0.475-1.324c-0.763-1.742-3.138-1.324-4.909-2.015L641.084,97.291z M524.879,103.179
			c-7.011,3.786-15.073,5.096-22.847,6.737c8.616,3.121,18.186,2.135,25.985-2.678c3.642-2.419,5.154-6.622,6.277-10.639
			c-3.11,2.246-6.176,4.592-9.444,6.579 M359.512,101.653c-10.927,11.819-27.165,18.369-34.248,33.6
			c6.468-3.452,12.749-7.243,18.816-11.358c12.412-7.37,21.356-19.403,24.833-33.413C366.105,94.468,362.96,98.206,359.512,101.653
			 M25.826,91.878c-9.545,7.759-17.75,18.7-17.808,31.484c2.591-5.01,4.722-10.279,8.076-14.842
			c4.463-6.651,11.315-11.215,18.067-15.26c9.66-5.255,31.081-7.198,31.023-1.627c0,3.225-5.643,6.982-9.257,10.466
			c3.987-1.118,7.846-2.647,11.517-4.564c2.375-1.987,6.824-4.319,3.901-8.263c-0.936-3.282-4.232-5.139-7.443-5.586
			c-12.956-4.16-27.439,0.144-38.034,8.191 M560.625,77.741c-2.256,2.56-3.773,5.685-4.391,9.041c0-0.374,0.878,0,1.123-0.274
			c4.463-5.139,9.962-8.321,16.296-10.941C569.334,76.345,564.367,75.078,560.625,77.741 M535.028,69.406
			c3.057,6.511,5.324,13.364,6.752,20.414c0.662,9.373-2.902,18.551-9.717,25.02c-4.549,3.887-10.077,6.305-15.591,8.465
			c13.604,0,28.591-7.5,32.391-21.393C550.806,89.229,542.414,78.634,535.028,69.406 M350.125,42.471
			c-13.216,4.455-25.922,10.299-37.905,17.434c2.015-2.879,5.125-5.629,7.198-8.393c-16.282,3.153-31.398,11.963-45.247,20.615
			c-19.751,8.019-39.359,16.44-58.621,25.567c-41.259,17.563-81.554,38.38-125.505,48.615c-12.414,2.87-25.216,3.673-37.89,2.375
			c-6.723-0.619-12.409-4.319-18.355-7.198c3.498,4.405,7.486,8.638,12.525,11.315c8.101,3.293,16.873,4.597,25.582,3.801
			c24.891-1.972,48.63-10.336,71.736-19.535c42.137-16.512,81.107-40.05,123.273-56.476c-4.88,7.529-10.97,15.361-10.365,24.833
			c-0.144,13.23,4.204,28.763,16.584,35.486c-3.642-5.758-8.292-10.927-10.077-17.621c-2.519-6.133-1.44-13.144-1.036-19.593
			c1.828,4.06,3.441,14.223,5.111,13.216c6.723-4.031,12.107-11.819,17.909-17.016c-0.274,7.032-0.129,14.075,0.432,21.09
			c5.989-5.946,10.466-13.187,16.397-19.19c9.185-9.185,17.434-19.363,27.612-27.525c9.602-7.644,19.391-16.095,31.47-19.262
			c4.981-1.699,8.566,2.491,10.38,6.406c2.577,6.003,7.126,11.646,6.032,18.628c0.418,12.769-4.319,24.79-9.631,36.134
			c10.567-9.242,15.908-23.178,17.045-36.926c-1.025-11.003-4.84-21.562-11.085-30.678c-2.303-3.441-5.514-6.953-9.804-7.616
			c-4.647-0.185-9.297,0.3-13.806,1.44 M488.529,31.976c-6.262,2.519-13.1,0.576-19.55,0.346
			c-31.415-1.875-62.926,1.368-93.301,9.602c3.599,5.917,7.443,11.747,10.077,18.153c8.767-3.21,17.448-6.924,26.762-8.263
			c-2.203,4.866-6.809,9.948-4.463,14.295c1.684,3.124,8.767-0.533,13.028-3.455c18.787-12.006,39.546-22.472,62.234-23.35
			c-7.4,15.389-31.023,23.178-38.078,28.259c-2.793,2.001-2.879,4.837-4.851,6.176c-3.757,2.505-8.522,5.37-10.264,9.314
			c-1.412,3.97-0.879,8.373,1.44,11.891c5.188,7.851,11.287,15.06,18.168,21.479c-3.988-7.486-9.329-14.396-11.776-22.602
			c-0.59-2.879-1.569-6.305,0-9.084c3.772-2.879,8.22,0.691,10.739,3.657c3.282,4.319,6.133,9.07,9.876,13.115
			c-2.159-6.205-6.305-11.992-6.651-18.715c0-5.298,6.55-4.866,10.336-5.01c-1.353,2.059-2.793,3.124-3.743,5.413
			c-0.648,3.887,1.166,7.457,2.879,10.754c11.762,21.277,24.833,41.893,35.357,63.846c-4.448,1.022-11.69,1.108-12.294,3.081
			c-0.749,2.447,10.624,5.758,16.887,7.054c6.205,1.094,5.758,8.522,6.709,13.331c0.418-0.749,1.353-1.569,1.713-2.303
			c2.98-5.96,0.993-8.868-0.806-13.374c3.11,2.289,6.838,4.319,8.321,8.163c0.847,3.047,1.449,6.157,1.799,9.3
			c0.23-0.633,1.036-0.36,1.44-1.555c1.814-5.758-0.345-11.891-3.671-17.103c4.518,2.857,7.693,7.413,8.81,12.64
			c0-0.576,0.59,0.144,0.893-0.821c0.993-3.225,1.353-7.673,0.446-9.458c-1.641-3.225-15.188-7.443-22.688-11.517
			c-5.01-2.188-6.536-7.745-8.767-12.222c-5.974-14.396-9.617-29.584-14.497-44.354c-1.44-4.16-4.06-7.774-6.349-11.517
			c8.868-0.216,24.473,0.144,26.489-2.879c1.224-1.843-3.556-1.843-5.514-2.879c0.59,0-0.59-1.065,0-1.008
			c7.371,0.777,16.368,0.835,23.566-1.051c3.916-1.137,7.918-4.002,8.249-8.407c0.792-12.769-7.817-23.235-14.684-33.111
			c9.617-0.158,18.715,3.498,26.676,8.638c-2.778,1.152-5.586,2.188-8.335,3.354c17.189,1.44,34.968,5.989,48.745,16.829
			c3.239,2.491,6.104,8.494,4.779,10.538c-0.159,0.229-0.413,0.372-0.691,0.389c-3.945,0.331-12.381,3.729-17.275,7.198
			c-3.469,2.879-5.24,7.198-7.4,11.128c0.187-0.115,1.224,0,1.44-0.086c7.86-6.536,17.866-7.63,27.972-8.379
			c-2.303,9.429-6.521,18.643-2.75,28.288c2.879,7.903,11.085,12.64,19.132,13.806c-6.075-3.469-12.625-7.975-14.051-15.332
			c-3.138-10.164,1.281-19.838,4.693-29.267c0.072-0.202,0.547,0,0.619-0.173c1.713,4.232,3.153,7.817,4.751,12.093
			c0.792-1.209,2.534-3.21,2.116-4.607c-2.433-8.206-9.041-16.023-4.967-22.112c1.9-2.879,4.866-1.555,8.307-1.252
			c6.834,2.864,12.577,7.831,16.397,14.18c-3.745-0.649-7.531-1.034-11.33-1.152c5.571,3.354,11.33,6.233,16.699,9.904
			c4.477,3.772,8.825,10.077,6.651,14.886c-1.44,3.282-5.758,3.973-9.271,5.974c0.312-0.021,0.624-0.021,0.936,0
			c5.96,0.576,12.611-1.022,14.396-3.225c1.152-1.44-4.074-11.906-6.421-17.923c2.116,1.209,4.204,2.476,6.334,3.685
			c-2.203-3.786-4.635-7.443-6.924-11.171c9.53,3.066,13.331,14.396,23.307,16.555c0.259,0,0.274,0.893,0.533,0.965
			c-1.252,1.987-2.75,3.57-4.031,5.542c2.879,0.23,8.119-0.921,9.156,0.936c0.677,1.195-2.879,2.692-2.159,3.268
			c0.936,0.821,3.556-0.633,5.442,0.302c3.397,1.684,9.098,6.55,14.583,10.725c-1.267-0.979-5.312,0-6.91,0.144
			c3.326,4.664,6.018,9.458,2.145,14.842c-0.415,0.505-0.786,1.044-1.108,1.612c-11.272-7.961-19.579-18.413-33.399-22.098
			c2.505,2.059,5.845,4.247,8.379,6.32c0.489,0.389,0.115,0.734,0.605,1.108c-9.127-1.785-18.139-3.541-27.482-2.879
			c6.766,1.54,13.705,2.404,20.327,4.549c0.489,0.158,0.273,1.18,0.749,1.339c-7.04,0.821-13.59,0.59-20.385,2.692
			c5.067,0.187,10.164,0.288,15.274,0.475c-0.101,0.446,0.23,1.44-0.101,1.785c-2.447,2.879-3.815,8.307,0,11.013
			c6.637,4.448,21.508,5.989,19.032,13.892c0.187-0.605,3.282-0.533,3.7-1.943c0.893-3.052-4.679-6.536-4.549-7.961
			c0.072-0.763,0.763-1.886,1.123-3.268c0.36-1.382,0.432-3.167,0.763-4.52c-1.769,1.749-3.697,3.33-5.758,4.722
			c-4.837,0.936-10.912-1.44-12.28-4.232c-1.67-3.354,4.391-10.351,10.293-9.919c4.679-0.461,8.954,1.958,10.452,4.938
			s-0.086,6.723-0.734,9.962c2.548-1.353,5.341-2.879,7.918-4.319c2.778,1.598,6.68,5.528,8.71,3.009
			c2.721-3.383,2.879-8.378,4.794-10.61c2.663-3.124,4.794-8.076,3.585-10.264c-2.548-4.564-13.806-11.215-20.874-17.088
			c-1.022-0.59-2.361-0.677-3.023-2.231c-0.763-1.785,1.555-3.57-2.231-5.442c-4.696-2.419-8.961-5.595-12.625-9.401
			c-4.405-3.714-7.903-8.81-13.518-10.84c-4.247-1.857-9.098-1.857-13.36-3.57c-4.938-3.426-8.738-8.638-14.396-10.898
			c-4.319-1.339-8.724,0.734-12.525,2.62c-13.118-9.275-28.022-15.722-43.764-18.931c-5.614-0.331-7.889-6.162-12.381-8.537
			C522.662,30.378,504.739,26.434,488.529,31.976 M480.77,28.017c4.765-0.245,9.069-2.879,13.907-2.879
			c18.974-1.8,39.935,3.095,53.712,16.915c4.995,3.441,11.272,3.527,16.93,5.226c8.451,2.067,16.486,5.568,23.753,10.351
			c6.075,4.117,13.935-2.462,20.255,1.44c4.851,2.879,8.191,7.529,12.64,10.84c4.319,1.943,9.458,1.828,13.791,3.945
			c6.953,3.873,11.675,10.48,17.822,15.404c4.017,3.282,10.869,4.319,12.481,9.516c0.302,0.979-0.389,1.843,0.777,3.009
			c4.319,4.319,14.396,11.315,20.154,16.224c3.311,2.491,2.994,6.838,1.886,10.509c-0.821,2.735-3.34,4.463-4.405,7.198
			c-1.178,3.557-2.732,6.979-4.636,10.207c-0.576,1.08-2.879,2.059-5.47,1.67c-2.879-0.417-5.413-3.081-5.917-2.562
			c0,0-4.823,2.447-6.565,3.009c1.109,2.879,3.93,5.6,2.26,8.22c-1.324,2.102-5.139,3.023-8.479,3.585
			c-1.943,0.317-0.95,2.591-2.793,3.34c-2.332,1.286-5.171,1.237-7.457-0.13c-5.902-3.369-11.978-7.803-14.396-14.396
			c-1.051-2.476-1.526-6.205-4.736-6.781c-7.587-2.102-15.677-1.584-23.192-4.002c-4.621-1.584-8.494-4.866-13.144-6.349
			c-7.068,0-14.396,0.432-21.09,2.879c-3.11,2.231-5.614,7.198-2.534,10.538c13.069,17.409,27.322,33.898,42.656,49.35
			c3.757,3.498,7.198,8.191,12.553,9.185c6.262,1.108,12.827,0.979,18.888,3.196c4.635,3.729,7.472,9.458,9.372,15.001
			c0.302,4.722-2.721,8.839-4.42,13.057c7.587,6.968,13.518,15.519,19.55,23.811c-131.479,0.561-262.987,0.072-394.452,0.23
			c-26.964-0.187-53.956,0.446-80.906-0.36c2.01-6.282,4.888-12.251,8.551-17.736c2.634-4.736,9.516-4.751,12.784-7.731
			c0.95-0.849,0-2.116,0.302-3.873c-0.864-0.13-1.799-1.44-2.534-1.339c-3.383,0.317-5.269,3.585-8.364,5.586
			c-1.022-3.541-0.461-8.263-4.448-10.077c-4.592-3.93-13.777-6.349-11.632-14.195c2.231-14.137,6.406-27.871,9.617-41.749
			c2.044-6.939,2.951-15.058,8.638-20.154c6.968-3.239,13.892,2.015,20.298,4.319c6.781,2.174,14.007,2.332,21.033,3.21
			c-0.821-11.114-4.434-21.695-6.968-32.463c-13.331,4.808-25.985,11.287-39.071,16.656c-31.671,14.022-63.343,28.907-97.648,35.4
			c-18.038,3.498-37.185,5.658-55.022,0.115c-14.281-3.916-30.232-10.077-37.286-24.085c-3.005-5.761-4.748-12.097-5.111-18.585
			c-1.44-14.396,4.995-28.375,14.396-38.941c9.199-9.89,22.53-16.599,36.307-15.231c7.585,0.151,14.814,3.249,20.154,8.638
			c1.923,2.03,2.79,4.84,2.347,7.601c-1.195,4.492-5.917,6.536-9.717,8.508c-11.762,4.146-23.509,10.739-30.232,21.594
			c-1.929,4.664-4.045,12.395,1.8,14.828c14.295,8.047,31.671,6.752,47.089,3.239c11.071-2.721,22.53-4.448,33.384-8.393
			c44.34-16.181,86.765-37.027,129.392-57.152c8.278-4.319,17.275-6.853,25.467-11.315c9.876-5.37,19.305-11.848,30.073-15.332
			c10.653-4.218,22.544-3.57,33.111-7.99c9.588-3.945,20.068-7.198,30.505-5.298c8.926,2.275,17.275-2.433,25.913-4.074
			c28.792-6.449,58.722-7.198,88.061-4.42"/>
		<path class="st0" d="M107.091,330.335h5.24v-43.073h-5.24V275.63h24.329l11.819,43.332l11.891-43.332h24.157v11.632h-5.24v43.073
			h5.24v11.157h-22.76v-10.653h4.535V294.46l-12.409,47.032h-11.819L124.41,294.69v36.148h4.434v10.653h-21.752V330.335z"/>
		<path class="st0" d="M190.387,330.335h5.859v-43.073h-5.859V275.63h25.755v11.632h-5.946v43.073h5.946v11.157h-25.755V330.335z"/>
		<path class="st0" d="M227.068,330.335h5.24v-43.073h-5.24V275.63h25.913c20.874,0,28.864,7.716,28.864,32.852
			c-0.072,25.668-7.975,33.01-28.864,33.01h-25.913V330.335z M254.061,330.781c9.689,0,13.59-3.469,13.59-22.199
			c0-18.125-3.729-21.853-13.935-21.853h-7.472v44.052H254.061z"/>
		<path class="st0" d="M291.85,330.335h5.24v-43.073h-5.24V275.63h25.841c20.874,0,28.864,7.716,28.864,32.852
			c0,25.668-7.903,32.953-28.864,32.953H291.85V330.335z M318.843,330.781c9.689,0,13.59-3.469,13.59-22.199
			c0-18.125-3.729-21.853-13.935-21.853h-7.472v44.052H318.843z"/>
		<path class="st0" d="M356.546,330.335h5.24v-43.073h-5.24V275.63h26.287v11.632h-7.097v43.606h16.512v-11.992h11.891v22.616
			h-47.593V330.335z"/>
		<path class="st0" d="M415.34,330.335h5.24v-43.073h-5.24V275.63h49.105v21.752h-11.891v-10.739h-18.297v15.62h15.533v11.2h-15.533
			v17.405h18.384v-11.992h11.963v22.616H415.34V330.335z"/>
		<path class="st0" d="M476.35,330.335h5.24v-43.073h-5.24V275.63h29.397c15.274,0,21.047,6.219,21.047,16.872
			c0,7.99-2.879,12.525-7.544,14.468c6.032,2.145,8.882,6.838,8.882,16.08c0,12.956-8.177,18.384-21.94,18.384H476.35V330.335z
			 M505.301,303.068c6.133,0,7.457-3.369,7.457-8.35c0-5.24-1.512-8.263-7.457-8.263h-9.948v16.613H505.301z M506.107,331.04
			c5.586,0,7.99-3.11,7.99-9.142c0-5.6-2.318-8.522-8.091-8.522h-10.653v17.664H506.107z"/>
		<path class="st0" d="M543.58,318.458v-31.196h-4.895V275.63h25.582v11.358h-6.752v30.376c0,8.796,1.958,13.144,11.286,13.144
			c9.329,0,11.272-4.175,11.272-13.144v-30.376h-6.752V275.63h25.164v11.632h-4.967v31.196c0,12.611-3.282,23.897-24.963,23.897
			C547.222,342.413,543.58,331.126,543.58,318.458z"/>
		<path class="st0" d="M609.557,330.335h5.24v-43.073h-5.24V275.63h30.822c17.678,0,21.594,7.903,21.594,20.601
			c0,9.588-2.75,16.167-11.099,19.089l7.99,15.015h5.6v11.157h-24.229v-10.394h4.434l-6.924-13.849h-9.861v13.503h4.708v10.739
			h-23.034L609.557,330.335z M639.572,306.941c6.493,0,8.882-2.217,8.882-9.948c0-7.99-2.217-10.207-8.969-10.207h-11.517v20.154
			H639.572z"/>
		<path class="st0" d="M688.951,330.335h5.758v-12.784l-17.405-30.232h-3.469v-11.632h23.984v11.099h-6.305l10.495,18.715
			l10.207-18.715h-6.133v-11.099h23.034v11.632h-3.556l-17.045,30.548v12.525h5.758v11.099h-25.323V330.335z"/>
	</g>
</g>
</svg>
