<svg xmlns="http://www.w3.org/2000/svg" viewBox="0 0 92.54 92.54"><defs><style>.cls-1{fill:#fff}.cls-2,.cls-3{fill:#231f20}.cls-3{fill-rule:evenodd}</style></defs><g id="Layer_2" data-name="Layer 2"><g id="Layer_1-2" data-name="Layer 1"><path class="cls-1" d="M0 46.27A46.27 46.27 0 1046.27 0 46.33 46.33 0 000 46.27z"/><path class="cls-1" d="M46.27 87a40.61 40.61 0 01-29.18-12.35V72.5a93.08 93.08 0 01.86-11.83 93.34 93.34 0 013-13.21c.75-2.59-.12-4.56-.27-5.68l-.13-.56-.13-.36a21.67 21.67 0 00-1.45-3.32 14 14 0 01-2-4.8 8.38 8.38 0 01-.19-1.68 4.6 4.6 0 01.87-3l.24-.2.17-.27a3.48 3.48 0 013.47-1.09l2.08.6c2.46.78 5.26 1.65 7.44 0 3.53-2.63 5.3-3.44 9.55-3.39a8.28 8.28 0 012.93.58l2.21.67.32.11h.46l.32-.11 2.16-.6a8.28 8.28 0 013-.58c4.25-.05 6 .76 9.55 3.39 2.18 1.61 5 .74 7.44 0l2.08-.6a3.47 3.47 0 013.47 1.09l.17.27.24.2a4.6 4.6 0 01.87 3 8.38 8.38 0 01-.19 1.68 14 14 0 01-2 4.8 21.67 21.67 0 00-1.45 3.32l-.25.92c-.76 2.4-.22 4.19.78 6.43a48.74 48.74 0 012.69 9.64 1.79 1.79 0 00.8 1.46c1.52 1.13 3 2.28 4.42 3.44.49.37 1.19.92 2.09 1.7A40.77 40.77 0 0146.27 87z"/><path class="cls-2" d="M38.85 43.59c-3.56 7.47-4.51 10.12-2.09 13.71 1.08 1.61.74 3.42 2.19 5 2.71 2.88 5 1.44 5 1.44s-4.44-.75-4.58-4.23c-.06-1.62-.77-2.67-1.5-4.09A7.87 7.87 0 0138 49c.84-2.12 5.11-14.41.84-5.45M54.58 49a7.87 7.87 0 01.17 6.33c-.73 1.42-1.44 2.47-1.5 4.09-.15 3.48-4.58 4.23-4.58 4.23s2.26 1.44 5-1.44c1.45-1.53 1.12-3.34 2.2-5 2.42-3.59 1.46-6.24-2.1-13.71-4.27-9 0 3.33.85 5.45"/><path class="cls-2" d="M51.54 59.91a3.16 3.16 0 00-1.91-.69c-.66 0-1.67 0-2.51.06v-1.75a17 17 0 001.77-.22c1.45-.25 2.53-1.9 2.73-4.3a5.62 5.62 0 00-1.87-3.86c-1-.62-3.08-.57-3.67-.55s-2.69-.07-3.66.55A5.62 5.62 0 0040.55 53c.19 2.4 1.28 4.05 2.72 4.3a15.64 15.64 0 002.15.25l-.08 1.71c-.8 0-1.75-.05-2.39-.05a3.19 3.19 0 00-1.91.69c-.35.32-.31.49.42.58s4.83.07 4.83.07 4.1 0 4.83-.07.78-.26.42-.58"/><path class="cls-3" d="M25.17 58.33c-.16 0-.16 1.53 1 4.1a13.59 13.59 0 008.15 7.42c4 1.52 9.26 1.68 9.35 1.42s-3.22-1-7.57-4.54c-2.57-2.11-2.55-4.23-2.93-4.27-1.31-.13 0 3.36-1.33 2.95-2.09-.61-4.76-3.87-5.57-5.4s-.9-1.72-1.1-1.68zM60.65 73.59c2.2-2.28 4.33-5.27 3.61-5.7-1-.63-2.46 1.58-7.87 2.85-3.67.87-8.43.74-7.58.4a19.12 19.12 0 007-3.31c2.86-2.08 4.36-5.71 4.8-6.1.77-.65.92 3.37-1.38 5.73 2.95-1 5.46-3.8 7.14-7.65C68 56.13 68 51.27 68.42 51s1.87 4.08 0 9.46a13.4 13.4 0 01-1.92 3.87 3.19 3.19 0 002-.88c2.6-2 3.18-4.84 3.18-2.8 0 1.38-.46 4.18-4.83 10.07-3.65 4.93-9.78 7.41-10.27 6.81-.23-.3 1.93-1.78 4-4"/><path class="cls-2" d="M22.27 34.69A18 18 0 0124 32c.5-.44-2.52-2.7-3.44-2.62s-.86.87.2 2.24a10.9 10.9 0 011.56 3.07M35.51 36c.38 0 .55 1.1 1.72 1.79s1.23 1.63-.39 1.67-4.58 0-4.6-.81a2.13 2.13 0 011.19-2.09 4.4 4.4 0 012.08-.56M70.27 34.69A18 18 0 0068.59 32c-.49-.44 2.52-2.7 3.44-2.62s.86.87-.19 2.24a11.08 11.08 0 00-1.57 3.07M57 36c-.38 0-.55 1.1-1.72 1.79s-1.22 1.63.39 1.67 4.59 0 4.6-.81a2.14 2.14 0 00-1.18-2.09A4.46 4.46 0 0057 36"/><path class="cls-2" d="M46.27 1.51A44.76 44.76 0 1091 46.27 44.8 44.8 0 0046.27 1.51zm0 4A40.73 40.73 0 0184 61.59c-2.26-1.69-4.2-3-5.67-4l-.06-.3a42.48 42.48 0 00-2.59-9c-1-2.27-1.5-4.19-.74-6.58A18.61 18.61 0 0176.11 39a16.93 16.93 0 002.3-5.66 11.09 11.09 0 00.24-2.26 7.16 7.16 0 00-1.75-5 6.36 6.36 0 00-6.53-2.32l-2.28.66c-1.9.6-3.86 1.22-4.87.48-3.8-2.84-6.22-4-11.29-4a11.18 11.18 0 00-3.82.73l-1.84.49-1.84-.49a11.18 11.18 0 00-3.82-.73c-5.07-.06-7.49 1.12-11.3 4-1 .74-3 .12-4.85-.48l-2.29-.66A6.36 6.36 0 0015.64 26a7.16 7.16 0 00-1.76 5 11.14 11.14 0 00.25 2.26 16.93 16.93 0 002.3 5.74 18.61 18.61 0 011.16 2.69 7.94 7.94 0 01.54 5 97.4 97.4 0 00-3.08 13.73 98.23 98.23 0 00-.86 11A40.71 40.71 0 0146.27 5.54zm0 81.46a40.61 40.61 0 01-29.18-12.32V72.5a93.08 93.08 0 01.86-11.83 93.34 93.34 0 013-13.21c.75-2.59-.12-4.56-.27-5.68l-.13-.56-.13-.36a21.67 21.67 0 00-1.45-3.32 14 14 0 01-2-4.8 8.38 8.38 0 01-.19-1.68 4.6 4.6 0 01.87-3l.24-.2.17-.27a3.48 3.48 0 013.47-1.09l2.08.6c2.46.78 5.26 1.65 7.44 0 3.53-2.63 5.3-3.44 9.55-3.39a8.28 8.28 0 012.93.58l2.21.67.32.11h.46l.32-.11 2.16-.6a8.28 8.28 0 013-.58c4.25-.05 6 .76 9.55 3.39 2.18 1.61 5 .74 7.44 0l2.08-.6a3.47 3.47 0 013.47 1.09l.17.27.24.2a4.6 4.6 0 01.87 3 8.38 8.38 0 01-.19 1.68 14 14 0 01-2 4.8 21.67 21.67 0 00-1.45 3.32l-.25.92c-.76 2.4-.22 4.19.78 6.43a48.74 48.74 0 012.69 9.64 1.79 1.79 0 00.8 1.46c1.52 1.13 3 2.28 4.42 3.44.49.37 1.19.92 2.09 1.7A40.77 40.77 0 0146.27 87z"/><path d="M46.27 5.54A40.73 40.73 0 0184 61.59c-2.26-1.69-4.2-3-5.67-4l-.06-.3a42.48 42.48 0 00-2.59-9c-1-2.27-1.5-4.19-.74-6.58A18.61 18.61 0 0176.11 39a16.93 16.93 0 002.3-5.66 11.09 11.09 0 00.24-2.26 7.16 7.16 0 00-1.75-5 6.36 6.36 0 00-6.53-2.32l-2.28.66c-1.9.6-3.86 1.22-4.87.48-3.8-2.84-6.22-4-11.29-4a11.18 11.18 0 00-3.82.73l-1.84.49-1.84-.49a11.18 11.18 0 00-3.82-.73c-5.07-.06-7.49 1.12-11.3 4-1 .74-3 .12-4.85-.48l-2.29-.66A6.36 6.36 0 0015.64 26a7.16 7.16 0 00-1.76 5 11.14 11.14 0 00.25 2.26 16.93 16.93 0 002.3 5.74 18.61 18.61 0 011.16 2.69 7.94 7.94 0 01.54 5 97.4 97.4 0 00-3.08 13.73 98.23 98.23 0 00-.86 11A40.71 40.71 0 0146.27 5.54z" fill="#b0b7bc"/><path class="cls-1" d="M70.42 87.58h1.42V88h-.48v1.48h-.46V88h-.48zM74.08 87.58v1.85h-.44v-1.5.26l-.35 1.24h-.39l-.34-1.19-.08-.33v1.52H72v-1.85h.68l.28 1 .06.29v-.23l.3-1.1z"/></g></g></svg>