<svg width="123" height="84" viewBox="0 0 123 84" fill="none" xmlns="http://www.w3.org/2000/svg">
<g clip-path="url(#clip0_504_1167)">
<path d="M78.1786 25.82L75.7686 17.25H75.0786C73.272 17.3005 71.4695 17.4474 69.6786 17.69L75.3686 19.09L67.0886 19.24L68.2786 20.72L61.2786 18.8L54.3286 20.72L55.5086 19.24L47.2286 19.09L52.9286 17.69C51.1377 17.4478 49.3351 17.3009 47.5286 17.25H47.1786L44.7786 26L46.0986 26.82L45.5086 24.67L50.9986 27.42L49.8886 24.61L56.1686 28.16L57.1686 27.34L59.9086 32.44L53.7086 29L54.7086 31.37L48.6486 28.37L48.8686 29.25C51.6786 30.73 54.4886 32.43 57.1486 34.13C54.4886 33.25 51.3886 32.21 50.0586 31.92C53.2386 34.8 55.5986 39.83 55.5986 46.48C55.5986 51.95 54.1186 56.24 53.3086 57.34C49.9086 58.67 46.7986 61.34 46.7986 66.22C46.7986 68.52 47.7986 71.22 50.3086 71.8L51.6786 66.87L52.6086 63.48L52.8486 62.63L53.3186 60.91L61.5586 31L69.9086 61.2L71.4186 66.65L72.8086 71.65C75.0486 70.89 75.8886 68.35 75.8886 66.18C75.8886 61.3 72.7786 58.63 69.3786 57.3C68.5686 56.2 67.0886 51.91 67.0886 46.44C67.0886 39.79 69.4586 34.76 72.5586 31.8C71.1586 32.25 68.1986 33.21 65.5586 34.09C68.2186 32.39 71.0286 30.69 73.8386 29.21L74.0586 28.33L67.9986 31.33L68.9986 28.96L62.8686 32.36L65.5986 27.26L66.5986 28.08L72.8786 24.53L71.7786 27.34L77.2486 24.6L76.6586 26.75L78.1786 25.82ZM76.7786 34.37C75.7609 35.0492 74.9295 35.9724 74.3601 37.0554C73.7906 38.1383 73.5013 39.3466 73.5186 40.57H75.3686C73.148 42.0096 71.5025 44.1823 70.7186 46.71C70.6386 34.34 78.1786 31.71 79.7186 31.36L79.1986 29.5C72.4886 31.85 68.6986 38 68.6986 46.5C68.6986 52.04 70.9886 56.03 73.6986 58.18C72.7388 55.96 72.1639 53.5929 71.9986 51.18C73.1086 52.51 74.2886 53.91 75.6186 54.43C74.9615 52.6219 74.5642 50.7297 74.4386 48.81C75.2773 49.6744 76.2374 50.4122 77.2886 51C76.7985 49.374 76.5031 47.6956 76.4086 46C76.835 46.3369 77.3062 46.6129 77.8086 46.82V40.02C78.1414 38.9587 78.3659 37.8665 78.4786 36.76C78.42 36.2454 78.2338 35.7537 77.9369 35.3293C77.64 34.905 77.2419 34.5615 76.7786 34.33V34.37ZM79.3286 40.02V40.09C79.3329 40.0669 79.3329 40.0431 79.3286 40.02V40.02ZM93.9186 19.22C94.5352 18.0489 94.8772 16.7529 94.9186 15.43L93.9186 19.22ZM96.6586 26.9C95.0286 26.9 93.4486 26.95 91.9186 27.04L91.4386 28.93C92.8386 28.82 94.3786 28.75 96.0686 28.75C97.7586 28.75 100.949 28.75 104.789 29.12L90.9986 31.26C93.7928 31.8544 96.6419 32.1527 99.4986 32.15C96.5656 33.2676 93.4056 33.6587 90.2886 33.29L90.1886 33.69C91.826 34.5728 93.6489 35.0559 95.5086 35.1C97.1926 35.1718 98.8685 34.8284 100.389 34.1C99.6319 34.8968 98.7122 35.521 97.6923 35.93C96.6723 36.339 95.5762 36.5232 94.4786 36.47C92.8466 36.4484 91.2315 36.1369 89.7086 35.55L89.2186 37.46C90.9954 38.2384 92.909 38.6565 94.8486 38.69C102.089 38.69 106.379 30.48 107.559 27.82C103.94 27.2335 100.284 26.8993 96.6186 26.82L96.6586 26.9ZM43.7686 29.62L43.2586 31.45C45.3586 32.08 52.0086 35.09 51.9386 46.71C51.1506 44.1816 49.5018 42.0091 47.2786 40.57H49.1286C49.1451 39.3478 48.8566 38.1408 48.2891 37.0582C47.7216 35.9757 46.8931 35.0517 45.8786 34.37C45.3968 34.719 44.9956 35.1675 44.7023 35.6851C44.4089 36.2027 44.2304 36.7773 44.1786 37.37C44.2267 38.2907 44.4508 39.1936 44.8386 40.03V46.83C45.3459 46.6223 45.8208 46.3428 46.2486 46C46.1505 47.696 45.8518 49.3743 45.3586 51C46.3945 50.4233 47.3411 49.6991 48.1686 48.85C48.0414 50.7686 47.6476 52.6601 46.9986 54.47C48.3286 53.95 49.5086 52.55 50.6186 51.22C50.4435 53.6314 49.869 55.9969 48.9186 58.22C51.6486 56.07 53.9186 52.08 53.9186 46.54C53.9186 38.19 50.2486 32.1 43.7486 29.67L43.7686 29.62ZM33.2986 35.45C31.6593 36.1207 29.9095 36.4802 28.1386 36.51C27.0394 36.564 25.9415 36.3803 24.9199 35.9712C23.8982 35.5622 22.9768 34.9376 22.2186 34.14C23.7393 34.8664 25.4147 35.2097 27.0986 35.14C29.1007 35.0919 31.0581 34.5381 32.7886 33.53L32.7186 33.28C29.4745 33.7238 26.1709 33.3491 23.1086 32.19C25.9654 32.1937 28.8145 31.8954 31.6086 31.3L17.8586 29.12C21.7086 28.75 24.8586 28.75 26.5786 28.75C28.4386 28.75 30.1086 28.83 31.5786 28.97L31.0886 27.07C29.4786 27 27.7686 26.9 25.9986 26.9C22.3332 26.9803 18.6778 27.3145 15.0586 27.9C16.2486 30.56 20.5286 38.77 27.7786 38.77C29.8529 38.7244 31.8955 38.2512 33.7786 37.38L33.2986 35.45ZM27.8086 14.25C27.7932 14.5231 27.7932 14.7969 27.8086 15.07C27.773 16.9189 28.3302 18.7306 29.3986 20.24L27.8086 14.25Z" fill="#500082"/>
<path d="M94.4 0V0.35C96.82 1.15 97.73 4.02 96.47 9.19L95.76 12C93.96 7.38 88.23 7.7 88.23 12.64C88.2438 13.566 88.1225 14.489 87.87 15.38C86.712 15.7581 85.5291 16.0555 84.33 16.27L83.84 16.36H83.6L83.12 16.44L82.64 16.51L81.64 16.65L80.81 16.73H80.73L80.47 16.66L80.25 16.61H80.08L79.89 16.56H79.72L79.27 16.45H79.17H78.97C77.7785 16.1659 76.5634 15.9918 75.34 15.93L73.5 9.19C72.12 4.25 73.16 1.19 75.57 0.35V0H47.43V0.35C49.84 1.15 50.88 4.13 49.5 9.07L47.62 15.81C46.2986 15.8519 44.9851 16.0295 43.7 16.34H43.5H43.4L42.94 16.45H42.78L42.59 16.5H42.42L42.2 16.55L41.94 16.62H41.85L41 16.69L40 16.55L39.53 16.48L39.05 16.4H38.81C38.64 16.4 38.48 16.34 38.32 16.31C37.1206 16.0966 35.9377 15.7992 34.78 15.42C34.5237 14.5296 34.3991 13.6065 34.41 12.68C34.41 7.78 29.09 7.48 27.1 11.58L26.53 9.3C25.15 4.13 26.19 1.15 28.6 0.3V0H0V0.35C2.41 1.15 5.17 4.59 6.55 9.65L24.35 74.42C25.73 79.36 25.27 82.69 22.85 83.49V83.84H51V83.49C48.59 82.69 48.24 79.13 49.62 74.19L49.84 73.42H50.03V74.08C49.9691 74.5819 50.0155 75.0911 50.1662 75.5737C50.3168 76.0564 50.5683 76.5015 50.9039 76.8797C51.2395 77.2579 51.6517 77.5604 52.113 77.7674C52.5743 77.9743 53.0744 78.0809 53.58 78.08C57.72 78.08 59.49 77.56 61.34 77.56C63.19 77.56 64.96 78.08 69.1 78.08C69.6051 78.0793 70.1044 77.9716 70.565 77.7642C71.0255 77.5567 71.437 77.2542 71.7723 76.8764C72.1076 76.4985 72.3591 76.0541 72.5104 75.5721C72.6617 75.0902 72.7093 74.5816 72.65 74.08V73.42C72.8543 73.3669 73.0547 73.3001 73.25 73.22L73.51 74.14C74.89 79.08 74.51 82.64 72.13 83.44V83.79H99.69V83.44C97.28 82.64 96.82 79.31 98.19 74.37L116.11 9.76C117.49 4.76 120.24 1.15 122.66 0.35V0H94.4ZM80.25 18.33C82.6118 18.0876 84.9519 17.6664 87.25 17.07C86.6241 18.1447 85.9328 19.18 85.18 20.17C86.601 19.3817 87.7791 18.2194 88.5864 16.8092C89.3938 15.3989 89.7997 13.7945 89.76 12.17C89.76 8.84 94.94 9.47 94.94 15.05C94.94 15.17 94.94 15.29 94.94 15.41C94.8986 16.7329 94.5566 18.0289 93.94 19.2C93.5604 19.9236 93.09 20.5957 92.54 21.2C93.3435 19.5731 93.6891 17.7583 93.54 15.95C91.69 21.49 88.37 23.34 88.37 23.34C89.0758 22.5517 89.5378 21.5756 89.7 20.53C87.87 22.76 83 25.05 80 25.2C79.5122 24.2359 79.2587 23.1704 79.26 22.09C79.2624 20.7713 79.6069 19.4757 80.26 18.33H80.25ZM93 22.68L92.26 25.62C90.0568 25.7418 87.8628 25.9956 85.69 26.38C88.3732 25.7101 90.8714 24.4456 93 22.68V22.68ZM27.81 14.25C28.31 9.64 32.94 9.02 32.94 12.19C32.9013 13.8155 33.3087 15.4206 34.1178 16.831C34.927 18.2413 36.1071 19.403 37.53 20.19C36.7768 19.1981 36.0823 18.163 35.45 17.09C37.7321 17.6823 40.0552 18.1035 42.4 18.35C43.057 19.4941 43.4018 20.7907 43.4 22.11C43.4013 23.1904 43.1478 24.2559 42.66 25.22C39.66 25.07 34.75 22.78 32.98 20.56C33.1377 21.607 33.6003 22.5843 34.31 23.37C34.31 23.37 31 21.5 29.17 16C29.0284 17.8079 29.3737 19.6208 30.17 21.25C29.8962 20.9302 29.6392 20.5965 29.4 20.25C28.3316 18.7406 27.7744 16.9289 27.81 15.08C27.7946 14.8069 27.7946 14.5331 27.81 14.26V14.25ZM36.93 26.39C34.8893 26.0269 32.8291 25.7831 30.76 25.66L30.1 23.1C32.141 24.6283 34.4612 25.7425 36.93 26.38V26.39ZM27.77 38.73C20.52 38.73 16.24 30.52 15.05 27.86C18.6734 27.2874 22.3322 26.9666 26 26.9C27.78 26.9 29.49 26.96 31.14 27.07C34.5889 27.2609 38.0012 27.8755 41.3 28.9C41.1352 29.0491 41.0037 29.2312 40.9141 29.4345C40.8245 29.6379 40.7788 29.8578 40.78 30.08C40.7765 30.3346 40.8277 30.5869 40.93 30.82C37.9045 29.8672 34.7816 29.2567 31.62 29C30.11 28.86 28.44 28.78 26.62 28.78C24.93 28.78 21.75 28.78 17.9 29.15L31.65 31.29C28.856 31.8854 26.0068 32.1837 23.15 32.18C26.2123 33.3391 29.5159 33.7138 32.76 33.27C32.9344 33.2605 33.108 33.2404 33.28 33.21C33.15 33.31 33 33.41 32.83 33.52C31.0849 34.5241 29.1131 35.0678 27.1 35.1C25.4161 35.1697 23.7407 34.8264 22.22 34.1C22.9782 34.8976 23.8996 35.5222 24.9213 35.9312C25.9429 36.3403 27.0408 36.524 28.14 36.47C29.9109 36.4402 31.6608 36.0807 33.3 35.41C35.1178 34.6774 36.8349 33.7163 38.41 32.55H40.63C38.6751 34.5611 36.3488 36.1742 33.78 37.3C31.8969 38.1712 29.8543 38.6444 27.78 38.69L27.77 38.73ZM42.63 33.69L37.55 51.91L34.13 38.68C37.1435 37.3034 39.913 35.4458 42.33 33.18L42.61 33.71L42.63 33.69ZM44.85 46.82V40.02C44.4622 39.1836 44.2382 38.2807 44.19 37.36C44.2418 36.7673 44.4204 36.1927 44.7137 35.6751C45.007 35.1575 45.4082 34.709 45.89 34.36C46.9045 35.0417 47.733 35.9657 48.3005 37.0482C48.868 38.1308 49.1565 39.3378 49.14 40.56H47.28C49.5032 41.9991 51.152 44.1716 51.94 46.7C52.01 35.08 45.36 32.07 43.26 31.44L42.77 31.32C42.486 30.9925 42.3298 30.5735 42.33 30.14C42.345 29.8091 42.476 29.494 42.7 29.25C43.06 29.36 43.42 29.48 43.77 29.61C50.27 32.04 53.94 38.13 53.94 46.48C53.94 52.02 51.64 56.01 48.94 58.16C49.8904 55.9369 50.4649 53.5714 50.64 51.16C49.5 52.55 48.32 54 47 54.47C47.6524 52.6606 48.0496 50.769 48.18 48.85C47.3494 49.6999 46.3995 50.4241 45.36 51C45.8532 49.3743 46.1519 47.696 46.25 46C45.8216 46.3393 45.3468 46.6154 44.84 46.82H44.85ZM69 76.65C66.11 76.65 63.16 76.2 61.31 76.2C59.46 76.2 56.5 76.65 53.62 76.65C53.3583 76.6864 53.0919 76.6654 52.8392 76.5884C52.5865 76.5114 52.3536 76.3804 52.1566 76.2044C51.9596 76.0283 51.8033 75.8115 51.6986 75.569C51.5938 75.3265 51.5431 75.0641 51.55 74.8C51.55 73.4 53.47 72.43 61.31 72.43C69.15 72.43 71.07 73.43 71.07 74.8C71.0769 75.0641 71.0262 75.3265 70.9214 75.569C70.8167 75.8115 70.6604 76.0283 70.4634 76.2044C70.2664 76.3804 70.0335 76.5114 69.7808 76.5884C69.5281 76.6654 69.2617 76.6864 69 76.65V76.65ZM72.79 71.65C72.3282 71.7996 71.8454 71.8739 71.36 71.87C69.36 71.87 65.74 70.32 61.36 70.32C56.98 70.32 53.3 71.87 51.3 71.87C50.9636 71.8707 50.6282 71.8338 50.3 71.76C47.74 71.2 46.79 68.48 46.79 66.17C46.79 61.3 49.9 58.63 53.3 57.3C54.11 56.2 55.59 51.91 55.59 46.44C55.59 39.79 53.23 34.76 50.05 31.88C51.38 32.17 54.48 33.21 57.14 34.09C54.48 32.39 51.67 30.69 48.86 29.21L48.64 28.33L54.7 31.33L53.7 28.96L59.84 32.36L57.1 27.26L56.1 28.08L49.82 24.53L51 27.42L45.53 24.68L46.12 26.83L44.78 26L44.18 25.63C44.6334 24.5022 44.8577 23.2954 44.84 22.08C44.86 20.581 44.4803 19.1037 43.74 17.8C44.8805 17.4862 46.0497 17.2885 47.23 17.21H47.58C49.3865 17.2609 51.1891 17.4078 52.98 17.65L47.28 19.05L55.56 19.2L54.38 20.68L61.33 18.76L68.33 20.68L67.14 19.2L75.42 19.05L69.73 17.65C71.5209 17.4074 73.3235 17.2605 75.13 17.21H75.82C76.8841 17.3058 77.938 17.4932 78.97 17.77C78.2267 19.0729 77.8436 20.5501 77.86 22.05C77.8452 23.2661 78.073 24.473 78.53 25.6L78.23 25.78L76.61 26.78L77.2 24.63L71.73 27.37L72.83 24.56L66.5 28.16L65.5 27.34L62.77 32.44L68.94 29L67.94 31.37L74 28.37L73.78 29.25C70.97 30.73 68.16 32.43 65.5 34.13C68.16 33.25 71.12 32.29 72.5 31.84C69.4 34.84 67.03 39.84 67.03 46.48C67.03 51.95 68.51 56.24 69.32 57.34C72.72 58.67 75.83 61.34 75.83 66.21C75.83 68.39 74.99 70.93 72.75 71.69L72.79 71.65ZM79.25 40.12C79.2543 40.0969 79.2543 40.0731 79.25 40.05C79.2543 40.0731 79.2543 40.0969 79.25 40.12V40.12ZM79.68 31.35C78.12 31.71 70.58 34.35 70.68 46.7C71.4639 44.1723 73.1094 41.9996 75.33 40.56H73.52C73.5028 39.3366 73.792 38.1283 74.3615 37.0454C74.9309 35.9624 75.7623 35.0392 76.78 34.36C77.2433 34.5915 77.6414 34.935 77.9383 35.3593C78.2352 35.7837 78.4214 36.2754 78.48 36.79C78.3673 37.8965 78.1428 38.9887 77.81 40.05V46.85C77.3064 46.6452 76.8349 46.369 76.41 46.03C76.5045 47.7256 76.7999 49.404 77.29 51.03C76.259 50.4504 75.3161 49.7264 74.49 48.88C74.6156 50.7997 75.0129 52.6919 75.67 54.5C74.34 53.98 73.16 52.58 72.05 51.25C72.2153 53.6629 72.7902 56.03 73.75 58.25C71.01 56.1 68.75 52.11 68.75 46.57C68.75 38.08 72.54 31.93 79.25 29.57L79.99 29.33C80.2098 29.5767 80.3402 29.8902 80.36 30.22C80.3621 30.6556 80.2016 31.0764 79.91 31.4H79.77L79.68 31.35ZM85.56 52L80.28 33.27V33.18C82.7961 35.5498 85.702 37.4679 88.87 38.85L85.56 52ZM94.89 38.7C92.9504 38.6665 91.0368 38.2485 89.26 37.47C86.5362 36.3486 84.0668 34.6888 82 32.59H84.21C85.9002 33.8383 87.7543 34.8477 89.72 35.59C91.2449 36.1689 92.8591 36.4768 94.49 36.5C95.5876 36.5532 96.6837 36.3691 97.7037 35.96C98.7236 35.551 99.6433 34.9268 100.4 34.13C98.8799 34.8584 97.204 35.2018 95.52 35.13C93.6603 35.0859 91.8374 34.6028 90.2 33.72C89.9143 33.5763 89.6431 33.4055 89.39 33.21L90.3 33.32C93.417 33.6887 96.577 33.2976 99.51 32.18C96.6533 32.1827 93.8042 31.8844 91.01 31.29L104.76 29.15C100.92 28.78 97.76 28.78 96.04 28.78C94.32 28.78 92.81 28.85 91.41 28.96C88.111 29.2111 84.8524 29.8453 81.7 30.85C81.7965 30.6151 81.8474 30.364 81.85 30.11C81.8487 29.8882 81.8019 29.669 81.7125 29.466C81.623 29.2631 81.4928 29.0806 81.33 28.93C84.7641 27.8409 88.3225 27.1924 91.92 27C93.45 26.91 95.03 26.86 96.66 26.86C100.325 26.9393 103.981 27.2735 107.6 27.86C106.42 30.52 102.13 38.73 94.89 38.73" fill="#500082"/>
<path d="M41.89 16.7599H41.81L41 16.6899L41.83 16.7699H41.91" fill="white"/>
<path d="M32.9984 20.5398C33.1562 21.5867 33.6187 22.5641 34.3284 23.3498C34.3284 23.3498 30.9984 21.4998 29.1684 15.9998C29.0268 17.8077 29.3721 19.6205 30.1684 21.2498C29.8946 20.93 29.6376 20.5962 29.3984 20.2498C28.33 18.7404 27.7729 16.9287 27.8084 15.0798C27.793 14.8066 27.793 14.5329 27.8084 14.2598C28.3084 9.64976 32.9384 9.02976 32.9384 12.1998C32.8997 13.8253 33.3071 15.4304 34.1163 16.8407C34.9255 18.2511 36.1056 19.4128 37.5284 20.1998C36.7756 19.2098 36.0843 18.1745 35.4584 17.0998C37.737 17.6927 40.0569 18.1139 42.3984 18.3598C43.0554 19.5039 43.4003 20.8005 43.3984 22.1198C43.3998 23.2002 43.1462 24.2657 42.6584 25.2298C39.6584 25.0798 34.7484 22.7898 32.9784 20.5698" fill="white"/>
<path d="M40.7786 30.0799C40.7751 30.3345 40.8262 30.5868 40.9286 30.8199C37.9031 29.8671 34.7802 29.2566 31.6186 28.9999C30.1086 28.8599 28.4386 28.7799 26.6186 28.7799C24.9286 28.7799 21.7486 28.7799 17.8986 29.1499L31.6486 31.2899C28.8545 31.8853 26.0054 32.1836 23.1486 32.1799C26.2109 33.339 29.5145 33.7137 32.7586 33.2699C32.933 33.2604 33.1066 33.2403 33.2786 33.2099C33.1486 33.3099 32.9986 33.4099 32.8286 33.5199C31.0835 34.524 29.1117 35.0677 27.0986 35.0999C25.4147 35.1696 23.7393 34.8263 22.2186 34.0999C22.9768 34.8975 23.8982 35.5221 24.9199 35.9311C25.9415 36.3402 27.0394 36.5239 28.1386 36.4699C29.9095 36.4401 31.6593 36.0806 33.2986 35.4099C35.1164 34.6773 36.8335 33.7162 38.4086 32.5499H40.6286C38.6737 34.561 36.3474 36.1741 33.7786 37.2999C31.8955 38.1711 29.8529 38.6443 27.7786 38.6899C20.5286 38.6899 16.2486 30.4799 15.0586 27.8199C18.6797 27.2612 22.3351 26.9538 25.9986 26.8999C27.7786 26.8999 29.4886 26.9599 31.1386 27.0699C34.5875 27.2608 37.9998 27.8754 41.2986 28.8999C41.1338 29.049 41.0023 29.2311 40.9127 29.4344C40.8231 29.6378 40.7774 29.8577 40.7786 30.0799Z" fill="white"/>
<path d="M42.6294 33.71V33.73L42.6094 33.71H42.6294Z" fill="white"/>
<path d="M53.9381 46.49C53.9381 52.03 51.6381 56.02 48.9381 58.17C49.8885 55.9469 50.463 53.5814 50.6381 51.17C49.4981 52.55 48.3181 54 46.9981 54.47C47.6505 52.6606 48.0477 50.769 48.1781 48.85C47.3476 49.6999 46.3976 50.4241 45.3581 51C45.8513 49.3743 46.15 47.696 46.2481 46C45.8197 46.3393 45.3449 46.6154 44.8381 46.82V40.02C44.4503 39.1836 44.2263 38.2807 44.1781 37.36C44.2299 36.7673 44.4085 36.1927 44.7018 35.6751C44.9951 35.1575 45.3963 34.709 45.8781 34.36C46.8927 35.0417 47.7211 35.9657 48.2886 37.0482C48.8561 38.1308 49.1446 39.3378 49.1281 40.56H47.2781C49.5013 41.9991 51.1501 44.1716 51.9381 46.7C52.0081 35.08 45.3581 32.07 43.2581 31.44L42.7681 31.32C42.4842 30.9925 42.3279 30.5735 42.3281 30.14C42.3431 29.8091 42.4741 29.494 42.6981 29.25C43.0581 29.36 43.4181 29.48 43.7681 29.61C50.2681 32.04 53.9381 38.13 53.9381 46.48" fill="white"/>
<path d="M71.0914 74.8002C71.0987 75.0662 71.0477 75.3306 70.9418 75.5747C70.8358 75.8189 70.6777 76.0368 70.4784 76.2132C70.2791 76.3896 70.0436 76.5202 69.7884 76.5956C69.5332 76.6711 69.2646 76.6898 69.0014 76.6502C66.1114 76.6502 63.1614 76.2002 61.3114 76.2002C59.4614 76.2002 56.5014 76.6502 53.6214 76.6502C53.3597 76.6866 53.0933 76.6655 52.8406 76.5886C52.5879 76.5116 52.355 76.3806 52.158 76.2045C51.961 76.0285 51.8047 75.8117 51.7 75.5692C51.5952 75.3267 51.5445 75.0643 51.5514 74.8002C51.5514 73.4002 53.4714 72.4302 61.3114 72.4302C69.1514 72.4302 71.0714 73.4302 71.0714 74.8002" fill="white"/>
<path d="M77.8083 22.09C77.7935 23.3061 78.0212 24.5129 78.4783 25.64L78.1783 25.82L76.5583 26.82L77.1483 24.67L71.6783 27.41L72.7783 24.6L66.4983 28.16L65.4983 27.34L62.7683 32.44L68.9383 29L67.9383 31.37L73.9983 28.37L73.7783 29.25C70.9683 30.73 68.1583 32.43 65.4983 34.13C68.1583 33.25 71.1183 32.29 72.4983 31.84C69.3983 34.84 67.0283 39.84 67.0283 46.48C67.0283 51.95 68.5083 56.24 69.3183 57.34C72.7183 58.67 75.8283 61.34 75.8283 66.21C75.8283 68.39 74.9883 70.93 72.7483 71.69C72.2865 71.8396 71.8037 71.9139 71.3183 71.91C69.3183 71.91 65.6983 70.36 61.3183 70.36C56.9383 70.36 53.2583 71.91 51.2583 71.91C50.9219 71.9102 50.5865 71.8733 50.2583 71.8C47.6983 71.24 46.7483 68.52 46.7483 66.21C46.7483 61.34 49.8583 58.67 53.2583 57.34C54.0683 56.24 55.5483 51.95 55.5483 46.48C55.5483 39.83 53.1883 34.8 50.0083 31.92C51.3383 32.21 54.4383 33.25 57.0983 34.13C54.4383 32.43 51.6283 30.73 48.8183 29.25L48.5983 28.37L54.6583 31.37L53.6583 29L59.7983 32.4L57.0583 27.3L56.0583 28.12L49.7783 24.57L50.9983 27.42L45.5283 24.68L46.1183 26.83L44.7783 26L44.1783 25.63C44.6316 24.5021 44.856 23.2954 44.8383 22.08C44.8582 20.5809 44.4786 19.1036 43.7383 17.8C44.8787 17.4861 46.048 17.2884 47.2283 17.21H47.5783C49.3848 17.2608 51.1873 17.4077 52.9783 17.65L47.2783 19.05L55.5583 19.2L54.3783 20.68L61.3283 18.76L68.3283 20.68L67.1383 19.2L75.4183 19.05L69.7283 17.65C71.5192 17.4073 73.3217 17.2605 75.1283 17.21H75.8183C76.8824 17.3058 77.9363 17.4931 78.9683 17.77C78.225 19.0728 77.8418 20.5501 77.8583 22.05" fill="white"/>
<path d="M80.33 30.1501C80.3321 30.5857 80.1716 31.0064 79.88 31.3301H79.74C78.18 31.6901 70.64 34.3301 70.74 46.6801C71.5239 44.1524 73.1694 41.9797 75.39 40.5401H73.52C73.5028 39.3167 73.792 38.1084 74.3615 37.0254C74.9309 35.9425 75.7623 35.0193 76.78 34.3401C77.2433 34.5715 77.6414 34.915 77.9383 35.3394C78.2352 35.7637 78.4214 36.2555 78.48 36.7701C78.3673 37.8766 78.1428 38.9688 77.81 40.0301V46.8301C77.3064 46.6253 76.8349 46.3491 76.41 46.0101C76.5045 47.7057 76.7999 49.3841 77.29 51.0101C76.259 50.4305 75.3161 49.7065 74.49 48.8601C74.6156 50.7798 75.0129 52.672 75.67 54.4801C74.34 53.9601 73.16 52.5601 72.05 51.2301C72.2153 53.643 72.7902 56.0101 73.75 58.2301C71.01 56.0801 68.75 52.0901 68.75 46.5501C68.75 38.0601 72.54 31.9101 79.25 29.5501L79.99 29.3101C80.2098 29.5567 80.3402 29.8702 80.36 30.2001" fill="white"/>
<path d="M81.6698 16.6899L80.8398 16.7699L81.6698 16.6899Z" fill="white"/>
<path d="M94.8917 15.07C94.8917 15.19 94.8917 15.31 94.8917 15.43C94.8503 16.7529 94.5084 18.049 93.8917 19.22C93.5122 19.9436 93.0417 20.6157 92.4917 21.22C93.2952 19.5932 93.6409 17.7783 93.4917 15.97C91.6417 21.51 88.3217 23.36 88.3217 23.36C89.0275 22.5717 89.4895 21.5956 89.6517 20.55C87.8717 22.76 83.0017 25.05 80.0017 25.2C79.5139 24.236 79.2604 23.1705 79.2617 22.09C79.2641 20.7713 79.6086 19.4757 80.2617 18.33C82.6236 18.0877 84.9636 17.6665 87.2617 17.07C86.6358 18.1448 85.9445 19.18 85.1917 20.17C86.6127 19.3817 87.7908 18.2194 88.5982 16.8092C89.4055 15.3989 89.8114 13.7946 89.7717 12.17C89.7717 8.84003 94.9517 9.47003 94.9517 15.05" fill="white"/>
<path d="M107.598 27.8599C106.418 30.5199 102.128 38.7299 94.8881 38.7299C92.9486 38.6964 91.0349 38.2783 89.2581 37.4999C86.5317 36.3696 84.0622 34.6994 81.9981 32.5899H84.2081C85.8983 33.8381 87.7524 34.8476 89.7181 35.5899C91.243 36.1687 92.8573 36.4767 94.4881 36.4999C95.5857 36.5531 96.6819 36.3689 97.7018 35.9599C98.7217 35.5509 99.6414 34.9267 100.398 34.1299C98.878 34.8582 97.2022 35.2017 95.5181 35.1299C93.6584 35.0858 91.8355 34.6026 90.1981 33.7199C89.9124 33.5762 89.6412 33.4054 89.3881 33.2099L90.2981 33.3199C93.4151 33.6886 96.5751 33.2974 99.5081 32.1799C96.6514 32.1825 93.8023 31.8842 91.0081 31.2899L104.758 29.1499C100.918 28.7799 97.7581 28.7799 96.0381 28.7799C94.3181 28.7799 92.8081 28.8499 91.4081 28.9599C88.1091 29.2109 84.8505 29.8452 81.6981 30.8499C81.7947 30.615 81.8456 30.3638 81.8481 30.1099C81.8468 29.8881 81.8 29.6689 81.7106 29.4659C81.6211 29.2629 81.491 29.0805 81.3281 28.9299C84.7622 27.8408 88.3207 27.1923 91.9181 26.9999C93.4481 26.9099 95.0281 26.8599 96.6581 26.8599C100.324 26.9392 103.979 27.2733 107.598 27.8599" fill="white"/>
<path d="M40.7786 30.0799C40.7751 30.3345 40.8262 30.5868 40.9286 30.8199C37.9031 29.8671 34.7802 29.2566 31.6186 28.9999C30.1086 28.8599 28.4386 28.7799 26.6186 28.7799C24.9286 28.7799 21.7486 28.7799 17.8986 29.1499L31.6486 31.2899C28.8545 31.8853 26.0054 32.1836 23.1486 32.1799C26.2109 33.339 29.5145 33.7137 32.7586 33.2699C32.933 33.2604 33.1066 33.2403 33.2786 33.2099C33.1486 33.3099 32.9986 33.4099 32.8286 33.5199C31.0835 34.524 29.1117 35.0677 27.0986 35.0999C25.4147 35.1696 23.7393 34.8263 22.2186 34.0999C22.9768 34.8975 23.8982 35.5221 24.9199 35.9311C25.9415 36.3402 27.0394 36.5239 28.1386 36.4699C29.9095 36.4401 31.6593 36.0806 33.2986 35.4099C35.1164 34.6773 36.8335 33.7162 38.4086 32.5499H40.6286C38.6737 34.561 36.3474 36.1741 33.7786 37.2999C31.8955 38.1711 29.8529 38.6443 27.7786 38.6899C20.5286 38.6899 16.2486 30.4799 15.0586 27.8199C18.6797 27.2612 22.3351 26.9538 25.9986 26.8999C27.7786 26.8999 29.4886 26.9599 31.1386 27.0699C34.5875 27.2608 37.9998 27.8754 41.2986 28.8999C41.1338 29.049 41.0023 29.2311 40.9127 29.4344C40.8231 29.6378 40.7774 29.8577 40.7786 30.0799Z" fill="#FFBE0A"/>
<path d="M53.9381 46.4902C53.9381 52.0302 51.6381 56.0202 48.9381 58.1702C49.8885 55.9471 50.463 53.5816 50.6381 51.1702C49.4981 52.5502 48.3181 54.0002 46.9981 54.4702C47.6505 52.6608 48.0477 50.7693 48.1781 48.8502C47.3476 49.7001 46.3976 50.4244 45.3581 51.0002C45.8513 49.3746 46.15 47.6962 46.2481 46.0002C45.8197 46.3395 45.3449 46.6156 44.8381 46.8202V40.0202C45.0281 40.7002 47.2781 40.5302 47.2781 40.5302C49.5013 41.9694 51.1501 44.1418 51.9381 46.6702C52.0081 35.0502 45.3581 32.0402 43.2581 31.4102L42.7681 31.2902C42.4842 30.9627 42.3279 30.5437 42.3281 30.1102C42.3431 29.7793 42.4741 29.4642 42.6981 29.2202C43.0581 29.3302 43.4181 29.4502 43.7681 29.5802C50.2681 32.0102 53.9381 38.1002 53.9381 46.4502" fill="#FFBE0A"/>
<path d="M79.3281 40.0601C79.3325 40.0832 79.3325 40.1069 79.3281 40.1301V40.0601Z" fill="#FFBE0A"/>
<path d="M71.0914 74.8002C71.0987 75.0662 71.0477 75.3306 70.9418 75.5747C70.8358 75.8189 70.6777 76.0368 70.4784 76.2132C70.2791 76.3896 70.0436 76.5202 69.7884 76.5956C69.5332 76.6711 69.2646 76.6898 69.0014 76.6502C66.1114 76.6502 63.1614 76.2002 61.3114 76.2002C59.4614 76.2002 56.5014 76.6502 53.6214 76.6502C53.3597 76.6866 53.0933 76.6655 52.8406 76.5886C52.5879 76.5116 52.355 76.3806 52.158 76.2045C51.961 76.0285 51.8047 75.8117 51.7 75.5692C51.5952 75.3267 51.5445 75.0643 51.5514 74.8002C51.5514 73.4002 53.4714 72.4302 61.3114 72.4302C69.1514 72.4302 71.0714 73.4302 71.0714 74.8002" fill="#FFBE0A"/>
<path d="M77.8083 22.09C77.7935 23.3061 78.0212 24.5129 78.4783 25.64L78.1783 25.82L76.5583 26.82L77.1483 24.67L71.6783 27.41L72.7783 24.6L66.4983 28.16L65.4983 27.34L62.7683 32.44L68.9383 29L67.9383 31.37L73.9983 28.37L73.7783 29.25C70.9683 30.73 68.1583 32.43 65.4983 34.13C68.1583 33.25 71.1183 32.29 72.4983 31.84C69.3983 34.84 67.0283 39.84 67.0283 46.48C67.0283 51.95 68.5083 56.24 69.3183 57.34C72.7183 58.67 75.8283 61.34 75.8283 66.21C75.8283 68.39 74.9883 70.93 72.7483 71.69C72.2865 71.8396 71.8037 71.9139 71.3183 71.91C69.3183 71.91 65.6983 70.36 61.3183 70.36C56.9383 70.36 53.2583 71.91 51.2583 71.91C50.9219 71.9102 50.5865 71.8733 50.2583 71.8C47.6983 71.24 46.7483 68.52 46.7483 66.21C46.7483 61.34 49.8583 58.67 53.2583 57.34C54.0683 56.24 55.5483 51.95 55.5483 46.48C55.5483 39.83 53.1883 34.8 50.0083 31.92C51.3383 32.21 54.4383 33.25 57.0983 34.13C54.4383 32.43 51.6283 30.73 48.8183 29.25L48.5983 28.37L54.6583 31.37L53.6583 29L59.7983 32.4L57.0583 27.3L56.0583 28.12L49.7783 24.57L50.9983 27.42L45.5283 24.68L46.1183 26.83L44.7783 26L44.1783 25.63C44.6316 24.5021 44.856 23.2954 44.8383 22.08C44.8582 20.5809 44.4786 19.1036 43.7383 17.8C44.8787 17.4861 46.048 17.2884 47.2283 17.21H47.5783C49.3848 17.2608 51.1873 17.4077 52.9783 17.65L47.2783 19.05L55.5583 19.2L54.3783 20.68L61.3283 18.76L68.3283 20.68L67.1383 19.2L75.4183 19.05L69.7283 17.65C71.5192 17.4073 73.3217 17.2605 75.1283 17.21H75.8183C76.8824 17.3058 77.9363 17.4931 78.9683 17.77C78.225 19.0728 77.8418 20.5501 77.8583 22.05" fill="#FFBE0A"/>
<path d="M80.3295 30.1501C80.3316 30.5857 80.1712 31.0064 79.8795 31.3301H79.7395C78.1795 31.6901 70.6395 34.3301 70.7395 46.6801C71.5234 44.1524 73.1689 41.9797 75.3895 40.5401C75.3895 40.5401 77.6495 40.7101 77.8295 40.0301V46.8301C77.326 46.6253 76.8545 46.3491 76.4295 46.0101C76.524 47.7057 76.8194 49.3841 77.3095 51.0101C76.2785 50.4305 75.3356 49.7065 74.5095 48.8601C74.6351 50.7798 75.0324 52.672 75.6895 54.4801C74.3595 53.9601 73.1795 52.5601 72.0695 51.2301C72.2349 53.643 72.8097 56.0101 73.7695 58.2301C71.0295 56.0801 68.7695 52.0901 68.7695 46.5501C68.7695 38.0601 72.5595 31.9101 79.2695 29.5501L80.0095 29.3101C80.2294 29.5567 80.3597 29.8702 80.3795 30.2001" fill="#FFBE0A"/>
<path d="M107.598 27.8599C106.418 30.5199 102.128 38.7299 94.8881 38.7299C92.9486 38.6964 91.0349 38.2783 89.2581 37.4999C86.5317 36.3696 84.0622 34.6994 81.9981 32.5899H84.2081C85.8983 33.8381 87.7524 34.8476 89.7181 35.5899C91.243 36.1687 92.8573 36.4767 94.4881 36.4999C95.5857 36.5531 96.6819 36.3689 97.7018 35.9599C98.7217 35.5509 99.6414 34.9267 100.398 34.1299C98.878 34.8582 97.2022 35.2017 95.5181 35.1299C93.6584 35.0858 91.8355 34.6026 90.1981 33.7199C89.9124 33.5762 89.6412 33.4054 89.3881 33.2099L90.2981 33.3199C93.4151 33.6886 96.5751 33.2974 99.5081 32.1799C96.6514 32.1825 93.8023 31.8842 91.0081 31.2899L104.758 29.1499C100.918 28.7799 97.7581 28.7799 96.0381 28.7799C94.3181 28.7799 92.8081 28.8499 91.4081 28.9599C88.1091 29.2109 84.8505 29.8452 81.6981 30.8499C81.7947 30.615 81.8456 30.3638 81.8481 30.1099C81.8468 29.8881 81.8 29.6689 81.7106 29.4659C81.6211 29.2629 81.491 29.0805 81.3281 28.9299C84.7622 27.8408 88.3207 27.1923 91.9181 26.9999C93.4481 26.9099 95.0281 26.8599 96.6581 26.8599C100.324 26.9392 103.979 27.2733 107.598 27.8599" fill="#FFBE0A"/>
<path d="M69.911 61.2101C69.5579 60.9935 69.1824 60.8158 68.791 60.6801C69.5353 61.6144 69.9968 62.7421 70.121 63.9301H68.201C67.761 66.0801 69.021 67.0401 70.201 67.0401C70.6383 67.0502 71.0668 66.9168 71.421 66.6601C71.707 66.4146 71.9324 66.1064 72.0799 65.7595C72.2273 65.4126 72.2927 65.0364 72.271 64.6601C72.2042 63.9303 71.9525 63.2296 71.5395 62.6242C71.1266 62.0187 70.5661 61.5286 69.911 61.2001V61.2101ZM66.581 55.5001L64.511 49.8001L63.101 54.0001L61.331 47.1301L59.551 54.0001L58.151 49.8601L56.081 55.5601L55.341 55.0001L56.151 58.6901L58.221 54.0001L59.781 58.2201L61.331 53.0001L62.881 58.1801L64.431 54.0001L66.501 58.7301L67.321 55.0001L66.581 55.5001ZM54.451 63.9301H52.531C52.5183 63.7837 52.5183 63.6365 52.531 63.4901C52.584 63.1998 52.6644 62.9152 52.771 62.6401V62.6401C53.0149 61.9324 53.3511 61.2599 53.771 60.6401C53.601 60.7001 53.411 60.7801 53.191 60.8801C52.001 61.4501 50.301 62.7501 50.301 64.6301C50.2612 65.0817 50.3594 65.5347 50.5826 65.9293C50.8058 66.3239 51.1435 66.6415 51.551 66.8401C51.8108 66.9478 52.0897 67.0022 52.371 67.0001C53.551 67.0001 54.811 66.0001 54.371 63.8901L54.451 63.9301ZM47.141 38.0601C46.761 38.0601 46.621 38.0601 46.621 37.6201C46.6412 37.3499 46.7423 37.0921 46.911 36.8801L47.141 36.5801C46.9561 36.1329 46.6473 35.7478 46.251 35.4701C45.5668 36.0784 45.144 36.9275 45.071 37.8401C45.0546 38.055 45.0823 38.2709 45.1525 38.4746C45.2226 38.6784 45.3337 38.8656 45.4789 39.0248C45.624 39.1841 45.8002 39.3119 45.9967 39.4005C46.1931 39.4891 46.4055 39.5366 46.621 39.5401C46.9159 39.5462 47.2107 39.5227 47.501 39.4701V38.0601H47.141ZM54.451 63.9301H52.531C52.5183 63.7837 52.5183 63.6365 52.531 63.4901C52.584 63.1998 52.6644 62.9152 52.771 62.6401V62.6401C53.0149 61.9324 53.3511 61.2599 53.771 60.6401C53.601 60.7001 53.411 60.7801 53.191 60.8801C52.001 61.4501 50.301 62.7501 50.301 64.6301C50.2612 65.0817 50.3594 65.5347 50.5826 65.9293C50.8058 66.3239 51.1435 66.6415 51.551 66.8401C51.8108 66.9478 52.0897 67.0022 52.371 67.0001C53.551 67.0001 54.811 66.0001 54.371 63.8901L54.451 63.9301ZM66.501 55.4701L64.431 49.7701L63.101 54.0001L61.331 47.1301L59.551 54.0001L58.151 49.8601L56.081 55.5601L55.341 55.0001L56.151 58.6901L58.221 54.0001L59.781 58.2201L61.331 53.0001L62.881 58.1801L64.431 54.0001L66.501 58.7301L67.321 55.0001L66.501 55.4701ZM69.831 61.1701C69.4779 60.9535 69.1023 60.7758 68.711 60.6401C69.4553 61.5744 69.9168 62.7021 70.041 63.8901H68.201C67.761 66.0401 69.021 67.0001 70.201 67.0001C70.6383 67.0102 71.0668 66.8768 71.421 66.6201C71.707 66.3746 71.9324 66.0664 72.0799 65.7195C72.2273 65.3726 72.2927 64.9964 72.271 64.6201C72.2042 63.8903 71.9525 63.1896 71.5395 62.5842C71.1266 61.9787 70.5661 61.4886 69.911 61.1601L69.831 61.1701ZM76.481 37.7901C76.481 37.6401 76.561 37.4901 76.931 37.1201L77.661 36.4601C77.661 36.0901 77.071 35.4601 76.781 35.3501C76.411 35.5701 74.931 36.9001 74.931 38.0801C74.9232 38.2826 74.9585 38.4844 75.0346 38.6722C75.1107 38.86 75.2258 39.0295 75.3724 39.1695C75.5189 39.3094 75.6936 39.4166 75.8847 39.484C76.0758 39.5513 76.2791 39.5773 76.481 39.5601C76.6569 39.5632 76.8322 39.5396 77.001 39.4901L77.371 38.0801H77.001C76.631 38.0801 76.481 38.0101 76.481 37.7901V37.7901ZM76.481 37.7901C76.481 37.6401 76.561 37.4901 76.931 37.1201L77.661 36.4601C77.661 36.0901 77.071 35.4601 76.781 35.3501C76.411 35.5701 74.931 36.9001 74.931 38.0801C74.9232 38.2826 74.9585 38.4844 75.0346 38.6722C75.1107 38.86 75.2258 39.0295 75.3724 39.1695C75.5189 39.3094 75.6936 39.4166 75.8847 39.484C76.0758 39.5513 76.2791 39.5773 76.481 39.5601C76.6569 39.5632 76.8322 39.5396 77.001 39.4901L77.371 38.0801H77.001C76.631 38.0801 76.481 38.0101 76.481 37.7901ZM54.481 63.8801H52.531C52.5183 63.7337 52.5183 63.5865 52.531 63.4401C52.584 63.1498 52.6644 62.8652 52.771 62.5901V62.5901C53.0149 61.8824 53.3511 61.2099 53.771 60.5901C53.601 60.6501 53.411 60.7301 53.191 60.8301C52.001 61.4001 50.301 62.7001 50.301 64.5801C50.2612 65.0317 50.3594 65.4847 50.5826 65.8793C50.8058 66.2739 51.1435 66.5915 51.551 66.7901C51.8108 66.8978 52.0897 66.9522 52.371 66.9501C53.551 66.9501 54.811 65.9501 54.371 63.8401L54.481 63.8801ZM66.501 55.4201L64.431 49.7201L63.101 54.0001L61.331 47.1301L59.551 54.0001L58.151 49.8601L56.081 55.5601L55.341 55.0001L56.151 58.6901L58.221 54.0001L59.781 58.2201L61.331 53.0001L62.881 58.1801L64.431 54.0001L66.501 58.7301L67.321 55.0001L66.501 55.4201ZM69.831 61.1201C69.4779 60.9035 69.1023 60.7258 68.711 60.5901C69.4553 61.5244 69.9168 62.6521 70.041 63.8401H68.201C67.761 65.9901 69.021 66.9501 70.201 66.9501C70.6383 66.9602 71.0668 66.8268 71.421 66.5701C71.707 66.3246 71.9324 66.0164 72.0799 65.6695C72.2273 65.3226 72.2927 64.9464 72.271 64.5701C72.2042 63.8403 71.9525 63.1396 71.5395 62.5342C71.1266 61.9287 70.5661 61.4386 69.911 61.1101L69.831 61.1201ZM53.281 60.8201L52.811 62.5401C53.0549 61.8324 53.3911 61.1599 53.811 60.5401C53.641 60.6001 53.451 60.6801 53.231 60.7801L53.281 60.8201ZM54.401 63.7801H52.531C52.5183 63.6337 52.5183 63.4865 52.531 63.3401L51.601 66.7301C51.8608 66.8378 52.1397 66.8922 52.421 66.8901C53.601 66.8901 54.861 65.8901 54.421 63.7801H54.401ZM66.551 55.3601L64.481 49.6601L63.101 54.0001L61.331 47.1301L59.551 54.0001L58.151 49.8601L56.081 55.5601L55.341 55.0001L56.151 58.6901L58.221 54.0001L59.781 58.2201L61.331 53.0001L62.881 58.1801L64.431 54.0001L66.501 58.7301L67.321 55.0001L66.551 55.3601ZM69.881 61.0601C69.5279 60.8435 69.1524 60.6658 68.761 60.5301C69.5053 61.4644 69.9668 62.5921 70.091 63.7801H68.201C67.761 65.9301 69.021 66.8901 70.201 66.8901C70.6383 66.9002 71.0668 66.7668 71.421 66.5101L69.881 61.0601ZM53.251 60.7701L52.781 62.4901C53.0249 61.7824 53.3611 61.1099 53.781 60.4901C53.611 60.5501 53.421 60.6301 53.201 60.7301L53.251 60.7701ZM54.371 63.7301H52.531C52.5183 63.5837 52.5183 63.4365 52.531 63.2901L51.601 66.6801C51.8608 66.7878 52.1397 66.8422 52.421 66.8401C53.601 66.8401 54.861 65.8401 54.421 63.7301H54.371ZM66.551 55.3101L64.481 49.6101L63.101 54.0001L61.331 47.1301L59.551 54.0001L58.151 49.8601L56.081 55.5601L55.341 55.0001L56.151 58.6901L58.221 54.0001L59.781 58.2201L61.331 53.0001L62.881 58.1801L64.431 54.0001L66.501 58.7301L67.321 55.0001L66.551 55.3101ZM69.881 61.0101C69.5279 60.7935 69.1524 60.6158 68.761 60.4801C69.5053 61.4144 69.9668 62.5421 70.091 63.7301H68.201C67.761 65.8801 69.021 66.8401 70.201 66.8401C70.6383 66.8502 71.0668 66.7168 71.421 66.4601L69.881 61.0101ZM53.251 60.7201L52.781 62.4401C53.0249 61.7323 53.3611 61.0599 53.781 60.4401C53.611 60.5001 53.421 60.5801 53.201 60.6801L53.251 60.7201ZM54.371 63.6801H52.531C52.5183 63.5337 52.5183 63.3865 52.531 63.2401L51.601 66.6301C51.8608 66.7378 52.1397 66.7922 52.421 66.7901C53.601 66.7901 54.861 65.7901 54.421 63.6801H54.371ZM66.551 55.2601L64.481 49.5601L63.101 54.0001L61.331 47.1301L59.551 54.0001L58.151 49.8601L56.081 55.5601L55.341 55.0001L56.151 58.6901L58.221 54.0001L59.781 58.2201L61.331 53.0001L62.881 58.1801L64.431 54.0001L66.501 58.7301L67.321 55.0001L66.551 55.2601ZM69.881 60.9601C69.5279 60.7435 69.1524 60.5658 68.761 60.4301C69.5053 61.3644 69.9668 62.4921 70.091 63.6801H68.201C67.761 65.8301 69.021 66.7901 70.201 66.7901C70.6383 66.8002 71.0668 66.6668 71.421 66.4101L69.881 60.9601ZM53.251 60.6701L52.781 62.3901C53.0249 61.6824 53.3611 61.0099 53.781 60.3901C53.611 60.4501 53.421 60.5301 53.201 60.6301L53.251 60.6701ZM54.371 63.6301H52.531C52.5183 63.4837 52.5183 63.3365 52.531 63.1901L51.601 66.5801C51.8608 66.6878 52.1397 66.7422 52.421 66.7401C53.601 66.7401 54.861 65.7401 54.421 63.6301H54.371ZM66.551 55.2101L64.481 49.5101L63.101 54.0001L61.331 47.1301L59.551 54.0001L58.151 49.8601L56.081 55.5601L55.341 55.0001L56.151 58.6901L58.221 54.0001L59.781 58.2201L61.331 53.0001L62.881 58.1801L64.431 54.0001L66.501 58.7301L67.321 55.0001L66.551 55.2101ZM69.881 60.9101C69.5279 60.6935 69.1524 60.5158 68.761 60.3801C69.5053 61.3144 69.9668 62.4421 70.091 63.6301H68.201C67.761 65.7801 69.021 66.7401 70.201 66.7401C70.6383 66.7502 71.0668 66.6168 71.421 66.3601L69.881 60.9101ZM53.251 60.6201L52.781 62.3401C53.0249 61.6324 53.3611 60.9599 53.781 60.3401C53.611 60.4001 53.421 60.4801 53.201 60.5801L53.251 60.6201ZM54.371 63.5801H52.531C52.5183 63.4337 52.5183 63.2865 52.531 63.1401L51.601 66.5301C51.8608 66.6378 52.1397 66.6922 52.421 66.6901C53.601 66.6901 54.861 65.6901 54.421 63.5801H54.371ZM66.551 55.1601L64.481 49.4601L63.101 54.0001L61.331 47.1301L59.551 54.0001L58.151 49.8601L56.081 55.5601L55.341 55.0001L56.151 58.6901L58.221 54.0001L59.781 58.2201L61.331 53.0001L62.881 58.1801L64.431 54.0001L66.501 58.7301L67.321 55.0001L66.551 55.1601ZM69.881 60.8601C69.5279 60.6435 69.1524 60.4658 68.761 60.3301C69.5053 61.2644 69.9668 62.3921 70.091 63.5801H68.201C67.761 65.7301 69.021 66.6901 70.201 66.6901C70.6383 66.7002 71.0668 66.5668 71.421 66.3101L69.881 60.8601ZM53.251 60.5701L52.781 62.2901C53.0249 61.5824 53.3611 60.9099 53.781 60.2901C53.611 60.3501 53.421 60.4301 53.201 60.5301L53.251 60.5701ZM54.371 63.5301H52.531C52.5183 63.3837 52.5183 63.2365 52.531 63.0901L51.601 66.4801C51.8608 66.5878 52.1397 66.6422 52.421 66.6401C53.601 66.6401 54.861 65.6401 54.421 63.5301H54.371ZM66.551 55.1101L64.481 49.4101L63.101 54.0001L61.331 47.1301L59.551 54.0001L58.151 49.8601L56.081 55.5601L55.341 55.0001L56.151 58.6901L58.221 54.0001L59.781 58.2201L61.331 53.0001L62.881 58.1801L64.431 54.0001L66.501 58.7301L67.321 55.0001L66.551 55.1101ZM69.881 60.8101C69.5279 60.5935 69.1524 60.4158 68.761 60.2801C69.5053 61.2144 69.9668 62.3421 70.091 63.5301H68.201C67.761 65.6801 69.021 66.6401 70.201 66.6401C70.6383 66.6502 71.0668 66.5168 71.421 66.2601L69.881 60.8101ZM53.251 60.5201L52.781 62.2401C53.0249 61.5324 53.3611 60.8599 53.781 60.2401C53.611 60.3001 53.421 60.3801 53.201 60.4801L53.251 60.5201ZM54.371 63.4801H52.531C52.5183 63.3337 52.5183 63.1865 52.531 63.0401L51.601 66.4301C51.8608 66.5378 52.1397 66.5922 52.421 66.5901C53.601 66.5901 54.861 65.5901 54.421 63.4801H54.371ZM66.551 55.0601L64.481 49.3601L63.101 54.0001L61.331 47.1301L59.551 54.0001L58.151 49.8601L56.081 55.5601L55.341 55.0001L56.151 58.6901L58.221 54.0001L59.781 58.2201L61.331 53.0001L62.881 58.1801L64.431 54.0001L66.501 58.7301L67.321 55.0001L66.551 55.0601ZM69.881 60.7601C69.5279 60.5435 69.1524 60.3658 68.761 60.2301C69.5053 61.1644 69.9668 62.2921 70.091 63.4801H68.201C67.761 65.6301 69.021 66.5901 70.201 66.5901C70.6383 66.6002 71.0668 66.4668 71.421 66.2101L69.881 60.7601ZM69.881 60.7601C69.5279 60.5435 69.1524 60.3658 68.761 60.2301C69.5053 61.1644 69.9668 62.2921 70.091 63.4801H68.201C67.761 65.6301 69.021 66.5901 70.201 66.5901C70.6383 66.6002 71.0668 66.4668 71.421 66.2101L69.881 60.7601ZM66.551 55.0601L64.481 49.3601L63.101 54.0001L61.331 47.1301L59.551 54.0001L58.151 49.8601L56.081 55.5601L55.341 55.0001L56.151 58.6901L58.221 54.0001L59.781 58.2201L61.331 53.0001L62.881 58.1801L64.431 54.0001L66.501 58.7301L67.321 55.0001L66.551 55.0601ZM54.451 63.9301H52.531C52.5183 63.7837 52.5183 63.6365 52.531 63.4901L51.601 66.8801C51.8608 66.9878 52.1397 67.0422 52.421 67.0401C53.601 67.0401 54.861 66.0401 54.421 63.9301H54.451ZM53.251 60.9301L52.781 62.6501C53.0249 61.9424 53.3611 61.2699 53.781 60.6501C53.611 60.7101 53.421 60.7901 53.201 60.8901L53.251 60.9301ZM69.831 61.1801C69.4779 60.9635 69.1023 60.7858 68.711 60.6501C69.4553 61.5844 69.9168 62.7121 70.041 63.9001H68.201C67.761 66.0501 69.021 67.0101 70.201 67.0101C70.6383 67.0202 71.0668 66.8868 71.421 66.6301L69.831 61.1801ZM66.501 55.4801L64.431 49.7801L63.101 54.0001L61.331 47.1301L59.551 54.0001L58.151 49.8601L56.081 55.5601L55.341 55.0001L56.151 58.6901L58.221 54.0001L59.781 58.2201L61.331 53.0001L62.881 58.1801L64.431 54.0001L66.501 58.7301L67.321 55.0001L66.501 55.4801ZM54.451 63.9301H52.531C52.5183 63.7837 52.5183 63.6365 52.531 63.4901L51.601 66.8801C51.8608 66.9878 52.1397 67.0422 52.421 67.0401C53.601 67.0401 54.861 66.0401 54.421 63.9301H54.451ZM53.251 60.9301L52.781 62.6501C53.0249 61.9424 53.3611 61.2699 53.781 60.6501C53.611 60.7101 53.421 60.7901 53.201 60.8901L53.251 60.9301ZM69.831 61.1801C69.4779 60.9635 69.1023 60.7858 68.711 60.6501C69.4553 61.5844 69.9168 62.7121 70.041 63.9001H68.201C67.761 66.0501 69.021 67.0101 70.201 67.0101C70.6383 67.0202 71.0668 66.8868 71.421 66.6301L69.831 61.1801ZM66.501 55.4801L64.431 49.7801L63.101 54.0001L61.331 47.1301L59.551 54.0001L58.151 49.8601L56.081 55.5601L55.341 55.0001L56.151 58.6901L58.221 54.0001L59.781 58.2201L61.331 53.0001L62.881 58.1801L64.431 54.0001L66.501 58.7301L67.321 55.0001L66.501 55.4801ZM54.451 63.9301H52.531C52.5183 63.7837 52.5183 63.6365 52.531 63.4901L51.601 66.8801C51.8608 66.9878 52.1397 67.0422 52.421 67.0401C53.601 67.0401 54.861 66.0401 54.421 63.9301H54.451ZM53.251 60.9301L52.781 62.6501C53.0249 61.9424 53.3611 61.2699 53.781 60.6501C53.611 60.7101 53.421 60.7901 53.201 60.8901L53.251 60.9301ZM69.831 61.1801C69.4779 60.9635 69.1023 60.7858 68.711 60.6501C69.4553 61.5844 69.9168 62.7121 70.041 63.9001H68.201C67.761 66.0501 69.021 67.0101 70.201 67.0101C70.6383 67.0202 71.0668 66.8868 71.421 66.6301L69.831 61.1801ZM66.501 55.4801L64.431 49.7801L63.101 54.0001L61.331 47.1301L59.551 54.0001L58.151 49.8601L56.081 55.5601L55.341 55.0001L56.151 58.6901L58.221 54.0001L59.781 58.2201L61.331 53.0001L62.881 58.1801L64.431 54.0001L66.501 58.7301L67.321 55.0001L66.501 55.4801ZM54.451 63.9301H52.531C52.5183 63.7837 52.5183 63.6365 52.531 63.4901L51.601 66.8801C51.8608 66.9878 52.1397 67.0422 52.421 67.0401C53.601 67.0401 54.861 66.0401 54.421 63.9301H54.451ZM53.251 60.9301L52.781 62.6501C53.0249 61.9424 53.3611 61.2699 53.781 60.6501C53.611 60.7101 53.421 60.7901 53.201 60.8901L53.251 60.9301ZM69.831 61.1801C69.4779 60.9635 69.1023 60.7858 68.711 60.6501C69.4553 61.5844 69.9168 62.7121 70.041 63.9001H68.201C67.761 66.0501 69.021 67.0101 70.201 67.0101C70.6383 67.0202 71.0668 66.8868 71.421 66.6301L69.831 61.1801ZM66.501 55.4801L64.431 49.7801L63.101 54.0001L61.331 47.1301L59.551 54.0001L58.151 49.8601L56.081 55.5601L55.341 55.0001L56.151 58.6901L58.221 54.0001L59.781 58.2201L61.331 53.0001L62.881 58.1801L64.431 54.0001L66.501 58.7301L67.321 55.0001L66.501 55.4801ZM54.451 63.9301H52.531C52.5183 63.7837 52.5183 63.6365 52.531 63.4901L51.601 66.8801C51.8608 66.9878 52.1397 67.0422 52.421 67.0401C53.601 67.0401 54.861 66.0401 54.421 63.9301H54.451ZM53.251 60.9301L52.781 62.6501C53.0249 61.9424 53.3611 61.2699 53.781 60.6501C53.611 60.7101 53.421 60.7901 53.201 60.8901L53.251 60.9301ZM69.831 61.1801C69.4779 60.9635 69.1023 60.7858 68.711 60.6501C69.4553 61.5844 69.9168 62.7121 70.041 63.9001H68.201C67.761 66.0501 69.021 67.0101 70.201 67.0101C70.6383 67.0202 71.0668 66.8868 71.421 66.6301L69.831 61.1801ZM66.501 55.4801L64.431 49.7801L63.101 54.0001L61.331 47.1301L59.551 54.0001L58.151 49.8601L56.081 55.5601L55.341 55.0001L56.151 58.6901L58.221 54.0001L59.781 58.2201L61.331 53.0001L62.881 58.1801L64.431 54.0001L66.501 58.7301L67.321 55.0001L66.501 55.4801ZM54.451 63.9301H52.531C52.5183 63.7837 52.5183 63.6365 52.531 63.4901L51.601 66.8801C51.8608 66.9878 52.1397 67.0422 52.421 67.0401C53.601 67.0401 54.861 66.0401 54.421 63.9301H54.451ZM53.251 60.9301L52.781 62.6501C53.0249 61.9424 53.3611 61.2699 53.781 60.6501C53.611 60.7101 53.421 60.7901 53.201 60.8901L53.251 60.9301ZM69.831 61.1801C69.4779 60.9635 69.1023 60.7858 68.711 60.6501C69.4553 61.5844 69.9168 62.7121 70.041 63.9001H68.201C67.761 66.0501 69.021 67.0101 70.201 67.0101C70.6383 67.0202 71.0668 66.8868 71.421 66.6301L69.831 61.1801ZM66.501 55.4801L64.431 49.7801L63.101 54.0001L61.331 47.1301L59.551 54.0001L58.151 49.8601L56.081 55.5601L55.341 55.0001L56.151 58.6901L58.221 54.0001L59.781 58.2201L61.331 53.0001L62.881 58.1801L64.431 54.0001L66.501 58.7301L67.321 55.0001L66.501 55.4801ZM54.451 63.9301H52.531C52.5183 63.7837 52.5183 63.6365 52.531 63.4901L51.601 66.8801C51.8608 66.9878 52.1397 67.0422 52.421 67.0401C53.601 67.0401 54.861 66.0401 54.421 63.9301H54.451ZM53.251 60.9301L52.781 62.6501C53.0249 61.9424 53.3611 61.2699 53.781 60.6501C53.611 60.7101 53.421 60.7901 53.201 60.8901L53.251 60.9301ZM76.401 37.8101C76.401 37.6601 76.481 37.5101 76.851 37.1401L77.581 36.4801C77.581 36.1101 76.991 35.4801 76.701 35.3701C76.331 35.5901 74.851 36.9201 74.851 38.1001C74.8432 38.3026 74.8785 38.5044 74.9546 38.6922C75.0307 38.88 75.1458 39.0495 75.2924 39.1895C75.4389 39.3294 75.6136 39.4366 75.8047 39.504C75.9958 39.5713 76.1991 39.5973 76.401 39.5801C76.5769 39.5832 76.7522 39.5596 76.921 39.5101L77.291 38.1001H77.001C76.631 38.1001 76.481 38.0301 76.481 37.8101H76.401ZM76.481 37.8101C76.481 37.6601 76.561 37.5101 76.931 37.1401L77.661 36.4801C77.661 36.1101 77.071 35.4801 76.781 35.3701C76.411 35.5901 74.931 36.9201 74.931 38.1001C74.9232 38.3026 74.9585 38.5044 75.0346 38.6922C75.1107 38.88 75.2258 39.0495 75.3724 39.1895C75.5189 39.3294 75.6936 39.4366 75.8847 39.504C76.0758 39.5713 76.2791 39.5973 76.481 39.5801C76.6569 39.5832 76.8322 39.5596 77.001 39.5101L77.371 38.1001H77.001C76.631 38.1001 76.481 38.0301 76.481 37.8101ZM76.481 37.8101C76.481 37.6601 76.561 37.5101 76.931 37.1401L77.661 36.4801C77.661 36.1101 77.071 35.4801 76.781 35.3701C76.411 35.5901 74.931 36.9201 74.931 38.1001C74.9232 38.3026 74.9585 38.5044 75.0346 38.6922C75.1107 38.88 75.2258 39.0495 75.3724 39.1895C75.5189 39.3294 75.6936 39.4366 75.8847 39.504C76.0758 39.5713 76.2791 39.5973 76.481 39.5801C76.6569 39.5832 76.8322 39.5596 77.001 39.5101L77.371 38.1001H77.001C76.631 38.1001 76.481 38.0301 76.481 37.8101ZM69.911 61.2101C69.5579 60.9935 69.1824 60.8158 68.791 60.6801C69.5353 61.6144 69.9968 62.7421 70.121 63.9301H68.201C67.761 66.0801 69.021 67.0401 70.201 67.0401C70.6383 67.0502 71.0668 66.9168 71.421 66.6601C71.707 66.4146 71.9324 66.1064 72.0799 65.7595C72.2273 65.4126 72.2927 65.0364 72.271 64.6601C72.2042 63.9303 71.9525 63.2296 71.5395 62.6242C71.1266 62.0187 70.5661 61.5286 69.911 61.2001V61.2101ZM66.581 55.5001L64.511 49.8001L63.101 54.0001L61.331 47.1301L59.551 54.0001L58.151 49.8601L56.081 55.5601L55.341 55.0001L56.151 58.6901L58.221 54.0001L59.781 58.2201L61.331 53.0001L62.881 58.1801L64.431 54.0001L66.501 58.7301L67.321 55.0001L66.581 55.5001ZM54.451 63.9301H52.531C52.5183 63.7837 52.5183 63.6365 52.531 63.4901C52.584 63.1998 52.6644 62.9152 52.771 62.6401V62.6401C53.0149 61.9324 53.3511 61.2599 53.771 60.6401C53.601 60.7001 53.411 60.7801 53.191 60.8801C52.001 61.4501 50.301 62.7501 50.301 64.6301C50.2612 65.0817 50.3594 65.5347 50.5826 65.9293C50.8058 66.3239 51.1435 66.6415 51.551 66.8401C51.8108 66.9478 52.0897 67.0022 52.371 67.0001C53.551 67.0001 54.811 66.0001 54.371 63.8901L54.451 63.9301ZM47.141 38.0601C46.761 38.0601 46.621 38.0601 46.621 37.6201C46.6412 37.3499 46.7423 37.0921 46.911 36.8801L47.141 36.5801C46.9561 36.1329 46.6473 35.7478 46.251 35.4701C45.5668 36.0784 45.144 36.9275 45.071 37.8401C45.0546 38.055 45.0823 38.2709 45.1525 38.4746C45.2226 38.6784 45.3337 38.8656 45.4789 39.0248C45.624 39.1841 45.8002 39.3119 45.9967 39.4005C46.1931 39.4891 46.4055 39.5366 46.621 39.5401C46.9159 39.5462 47.2107 39.5227 47.501 39.4701V38.0601H47.141ZM54.451 63.9301H52.531C52.5183 63.7837 52.5183 63.6365 52.531 63.4901C52.584 63.1998 52.6644 62.9152 52.771 62.6401V62.6401C53.0149 61.9324 53.3511 61.2599 53.771 60.6401C53.601 60.7001 53.411 60.7801 53.191 60.8801C52.001 61.4501 50.301 62.7501 50.301 64.6301C50.2612 65.0817 50.3594 65.5347 50.5826 65.9293C50.8058 66.3239 51.1435 66.6415 51.551 66.8401C51.8108 66.9478 52.0897 67.0022 52.371 67.0001C53.551 67.0001 54.811 66.0001 54.371 63.8901L54.451 63.9301ZM66.501 55.4701L64.431 49.7701L63.101 54.0001L61.331 47.1301L59.551 54.0001L58.151 49.8601L56.081 55.5601L55.341 55.0001L56.151 58.6901L58.221 54.0001L59.781 58.2201L61.331 53.0001L62.881 58.1801L64.431 54.0001L66.501 58.7301L67.321 55.0001L66.501 55.4701ZM69.831 61.1701C69.4779 60.9535 69.1023 60.7758 68.711 60.6401C69.4553 61.5744 69.9168 62.7021 70.041 63.8901H68.201C67.761 66.0401 69.021 67.0001 70.201 67.0001C70.6383 67.0102 71.0668 66.8768 71.421 66.6201C71.707 66.3746 71.9324 66.0664 72.0799 65.7195C72.2273 65.3726 72.2927 64.9964 72.271 64.6201C72.2042 63.8903 71.9525 63.1896 71.5395 62.5842C71.1266 61.9787 70.5661 61.4886 69.911 61.1601L69.831 61.1701ZM76.481 37.7901C76.481 37.6401 76.561 37.4901 76.931 37.1201L77.661 36.4601C77.661 36.0901 77.071 35.4601 76.781 35.3501C76.411 35.5701 74.931 36.9001 74.931 38.0801C74.9232 38.2826 74.9585 38.4844 75.0346 38.6722C75.1107 38.86 75.2258 39.0295 75.3724 39.1695C75.5189 39.3094 75.6936 39.4166 75.8847 39.484C76.0758 39.5513 76.2791 39.5773 76.481 39.5601C76.6569 39.5632 76.8322 39.5396 77.001 39.4901L77.371 38.0801H77.001C76.631 38.0801 76.481 38.0101 76.481 37.7901V37.7901ZM76.481 37.7901C76.481 37.6401 76.561 37.4901 76.931 37.1201L77.661 36.4601C77.661 36.0901 77.071 35.4601 76.781 35.3501C76.411 35.5701 74.931 36.9001 74.931 38.0801C74.9232 38.2826 74.9585 38.4844 75.0346 38.6722C75.1107 38.86 75.2258 39.0295 75.3724 39.1695C75.5189 39.3094 75.6936 39.4166 75.8847 39.484C76.0758 39.5513 76.2791 39.5773 76.481 39.5601C76.6569 39.5632 76.8322 39.5396 77.001 39.4901L77.371 38.0801H77.001C76.631 38.0801 76.481 38.0101 76.481 37.7901ZM69.911 61.2101C69.5579 60.9935 69.1824 60.8158 68.791 60.6801C69.5353 61.6144 69.9968 62.7421 70.121 63.9301H68.201C67.761 66.0801 69.021 67.0401 70.201 67.0401C70.6383 67.0502 71.0668 66.9168 71.421 66.6601C71.707 66.4146 71.9324 66.1064 72.0799 65.7595C72.2273 65.4126 72.2927 65.0364 72.271 64.6601C72.2042 63.9303 71.9525 63.2296 71.5395 62.6242C71.1266 62.0187 70.5661 61.5286 69.911 61.2001V61.2101ZM66.581 55.5001L64.511 49.8001L63.101 54.0001L61.331 47.1301L59.551 54.0001L58.151 49.8601L56.081 55.5601L55.341 55.0001L56.151 58.6901L58.221 54.0001L59.781 58.2201L61.331 53.0001L62.881 58.1801L64.431 54.0001L66.501 58.7301L67.321 55.0001L66.581 55.5001ZM54.451 63.9301H52.531C52.5183 63.7837 52.5183 63.6365 52.531 63.4901C52.584 63.1998 52.6644 62.9152 52.771 62.6401V62.6401C53.0149 61.9324 53.3511 61.2599 53.771 60.6401C53.601 60.7001 53.411 60.7801 53.191 60.8801C52.001 61.4501 50.301 62.7501 50.301 64.6301C50.2612 65.0817 50.3594 65.5347 50.5826 65.9293C50.8058 66.3239 51.1435 66.6415 51.551 66.8401C51.8108 66.9478 52.0897 67.0022 52.371 67.0001C53.551 67.0001 54.811 66.0001 54.371 63.8901L54.451 63.9301ZM47.141 38.0601C46.761 38.0601 46.621 38.0601 46.621 37.6201C46.6412 37.3499 46.7423 37.0921 46.911 36.8801L47.141 36.5801C46.9561 36.1329 46.6473 35.7478 46.251 35.4701C45.5668 36.0784 45.144 36.9275 45.071 37.8401C45.0546 38.055 45.0823 38.2709 45.1525 38.4746C45.2226 38.6784 45.3337 38.8656 45.4789 39.0248C45.624 39.1841 45.8002 39.3119 45.9967 39.4005C46.1931 39.4891 46.4055 39.5366 46.621 39.5401C46.9159 39.5462 47.2107 39.5227 47.501 39.4701V38.0601H47.141ZM66.581 55.5101L64.511 49.8101L63.101 54.0001L61.331 47.1301L59.551 54.0001L58.151 49.8601L56.081 55.5601L55.341 55.0001L56.151 58.6901L58.221 54.0001L59.781 58.2201L61.331 53.0001L62.881 58.1801L64.431 54.0001L66.501 58.7301L67.321 55.0001L66.581 55.5101ZM54.451 63.9301H52.531C52.5183 63.7837 52.5183 63.6365 52.531 63.4901C52.584 63.1998 52.6644 62.9152 52.771 62.6401V62.6401C53.0149 61.9324 53.3511 61.2599 53.771 60.6401C53.601 60.7001 53.411 60.7801 53.191 60.8801C52.001 61.4501 50.301 62.7501 50.301 64.6301C50.2612 65.0817 50.3594 65.5347 50.5826 65.9293C50.8058 66.3239 51.1435 66.6415 51.551 66.8401C51.8108 66.9478 52.0897 67.0022 52.371 67.0001C53.551 67.0001 54.811 66.0001 54.371 63.8901L54.451 63.9301ZM47.141 38.0601C46.761 38.0601 46.621 38.0601 46.621 37.6201C46.6412 37.3499 46.7423 37.0921 46.911 36.8801L47.141 36.5801C46.9561 36.1329 46.6473 35.7478 46.251 35.4701C45.5668 36.0784 45.144 36.9275 45.071 37.8401C45.0546 38.055 45.0823 38.2709 45.1525 38.4746C45.2226 38.6784 45.3337 38.8656 45.4789 39.0248C45.624 39.1841 45.8002 39.3119 45.9967 39.4005C46.1931 39.4891 46.4055 39.5366 46.621 39.5401C46.9159 39.5462 47.2107 39.5227 47.501 39.4701V38.0601H47.141ZM47.141 38.0601C46.761 38.0601 46.621 38.0601 46.621 37.6201C46.6412 37.3499 46.7423 37.0921 46.911 36.8801L47.141 36.5801C46.9561 36.1329 46.6473 35.7478 46.251 35.4701C45.5668 36.0784 45.144 36.9275 45.071 37.8401C45.0546 38.055 45.0823 38.2709 45.1525 38.4746C45.2226 38.6784 45.3337 38.8656 45.4789 39.0248C45.624 39.1841 45.8002 39.3119 45.9967 39.4005C46.1931 39.4891 46.4055 39.5366 46.621 39.5401C46.9159 39.5462 47.2107 39.5227 47.501 39.4701V38.0601H47.141ZM69.911 61.2101C69.5579 60.9935 69.1824 60.8158 68.791 60.6801C69.5353 61.6144 69.9968 62.7421 70.121 63.9301H68.201C67.761 66.0801 69.021 67.0401 70.201 67.0401C70.6383 67.0502 71.0668 66.9168 71.421 66.6601C71.707 66.4146 71.9324 66.1064 72.0799 65.7595C72.2273 65.4126 72.2927 65.0364 72.271 64.6601C72.2042 63.9303 71.9525 63.2296 71.5395 62.6242C71.1266 62.0187 70.5661 61.5286 69.911 61.2001V61.2101ZM76.481 37.8301C76.481 37.6801 76.561 37.5301 76.931 37.1601L77.661 36.5001C77.661 36.1301 77.071 35.5001 76.781 35.3901C76.411 35.6101 74.931 36.9401 74.931 38.1201C74.9232 38.3226 74.9585 38.5244 75.0346 38.7122C75.1107 38.9 75.2258 39.0695 75.3724 39.2095C75.5189 39.3494 75.6936 39.4566 75.8847 39.524C76.0758 39.5913 76.2791 39.6173 76.481 39.6001C76.6569 39.6032 76.8322 39.5796 77.001 39.5301L77.371 38.1201H77.001C76.631 38.1201 76.481 38.0501 76.481 37.8301V37.8301ZM76.481 37.8301C76.481 37.6801 76.561 37.5301 76.931 37.1601L77.661 36.5001C77.661 36.1301 77.071 35.5001 76.781 35.3901C76.411 35.6101 74.931 36.9401 74.931 38.1201C74.9232 38.3226 74.9585 38.5244 75.0346 38.7122C75.1107 38.9 75.2258 39.0695 75.3724 39.2095C75.5189 39.3494 75.6936 39.4566 75.8847 39.524C76.0758 39.5913 76.2791 39.6173 76.481 39.6001C76.6569 39.6032 76.8322 39.5796 77.001 39.5301L77.371 38.1201H77.001C76.631 38.1201 76.481 38.0501 76.481 37.8301Z" fill="#500082"/>
</g>
<defs>
<clipPath id="clip0_504_1167">
<rect width="122.66" height="83.84" fill="white"/>
</clipPath>
</defs>
</svg>
